0
SECTION
2
HEADER
9
$INSUNITS
70
4
9
$ACADVER
1
AC1014
9
$HANDSEED
5
FFFF
0
ENDSEC
0
SECTION
2
TABLES
0
TABLE
2
VPORT
5
8
100
AcDbSymbolTable
0
ENDTAB
0
TABLE
2
LTYPE
5
5
100
AcDbSymbolTable
0
LTYPE
5
14
100
AcDbSymbolTableRecord
100
AcDbLinetypeTableRecord
2
BYBLOCK
70
0
0
LTYPE
5
15
100
AcDbSymbolTableRecord
100
AcDbLinetypeTableRecord
2
BYLAYER
70
0
0
ENDTAB
0
TABLE
2
LAYER
5
2
100
AcDbSymbolTable
70
2
0
LAYER
5
50
100
AcDbSymbolTableRecord
100
AcDbLayerTableRecord
2
0
70
0
6
CONTINUOUS
0
ENDTAB
0
TABLE
2
STYLE
5
3
100
AcDbSymbolTable
70
1
0
STYLE
5
11
100
AcDbSymbolTableRecord
100
AcDbTextStyleTableRecord
2
STANDARD
70
0
0
ENDTAB
0
TABLE
2
VIEW
5
6
100
AcDbSymbolTable
70
0
0
ENDTAB
0
TABLE
2
UCS
5
7
100
AcDbSymbolTable
70
0
0
ENDTAB
0
TABLE
2
APPID
5
9
100
AcDbSymbolTable
70
2
0
APPID
5
12
100
AcDbSymbolTableRecord
100
AcDbRegAppTableRecord
2
ACAD
70
0
0
ENDTAB
0
TABLE
2
DIMSTYLE
5
A
100
AcDbSymbolTable
70
1
0
ENDTAB
0
TABLE
2
BLOCK_RECORD
5
1
100
AcDbSymbolTable
70
1
0
BLOCK_RECORD
5
1F
100
AcDbSymbolTableRecord
100
AcDbBlockTableRecord
2
*MODEL_SPACE
0
BLOCK_RECORD
5
1B
100
AcDbSymbolTableRecord
100
AcDbBlockTableRecord
2
*PAPER_SPACE
0
ENDTAB
0
ENDSEC
0
SECTION
2
BLOCKS
0
BLOCK
5
20
100
AcDbEntity
100
AcDbBlockBegin
2
*MODEL_SPACE
0
ENDBLK
5
21
100
AcDbEntity
100
AcDbBlockEnd
0
BLOCK
5
1C
100
AcDbEntity
100
AcDbBlockBegin
2
*PAPER_SPACE
0
ENDBLK
5
1D
100
AcDbEntity
100
AcDbBlockEnd
0
ENDSEC
0
SECTION
2
ENTITIES
0
LINE
5
100
100
AcDbEntity
8
0
100
AcDbLine
10
-33.42375620335028
20
33.197434877599612
30
0
11
-33.42375620335028
21
29.618333315099612
31
0
0
LINE
5
101
100
AcDbEntity
8
0
100
AcDbLine
10
-26.265553078350283
20
29.618333315099612
30
0
11
-26.265553078350283
21
33.197434877599612
31
0
0
LINE
5
102
100
AcDbEntity
8
0
100
AcDbLine
10
-26.265553078350283
20
33.197434877599612
30
0
11
-25.826099953350283
21
33.197434877599612
31
0
0
LINE
5
103
100
AcDbEntity
8
0
100
AcDbLine
10
-25.826099953350283
20
33.197434877599612
30
0
11
-25.826099953350283
21
31.913255190099612
31
0
0
SPLINE
5
104
100
AcDbEntity
8
0
100
AcDbSpline
70
1064
71
3
72
9
73
5
74
0
42
0.000000001
43
0.0000000001
44
0.0000000001
40
0
40
0
40
0
40
0
40
0.043875065925744243
40
0.087638592386088357
40
0.087638592386088357
40
0.087638592386088357
40
0.087638592386088357
10
-25.826099953350283
20
31.913255190099612
30
0
10
-25.716946686621569
20
32.017218358069407
30
0
10
-25.498917643277508
20
32.224880398196966
30
0
10
-25.199333962858731
20
32.254773149508196
30
0
10
-25.049732765850283
20
32.269700502599612
30
0
0
SPLINE
5
105
100
AcDbEntity
8
0
100
AcDbSpline
70
1064
71
3
72
9
73
5
74
0
42
0.000000001
43
0.0000000001
44
0.0000000001
40
0
40
0
40
0
40
0
40
0.027065719858947422
40
0.051715253410153039
40
0.051715253410153039
40
0.051715253410153039
40
0.051715253410153039
10
-25.049732765850283
20
32.269700502599612
30
0
10
-24.958688107069385
20
32.265919269034278
30
0
10
-24.784726445416467
20
32.258694356744741
30
0
10
-24.625254917219959
20
32.189266955272544
30
0
10
-24.549244484600283
20
32.156175111974612
30
0
0
SPLINE
5
106
100
AcDbEntity
8
0
100
AcDbSpline
70
1064
71
3
72
9
73
5
74
0
42
0.000000001
43
0.0000000001
44
0.0000000001
40
0
40
0
40
0
40
0
40
0.022687063966979976
40
0.044297000415270169
40
0.044297000415270169
40
0.044297000415270169
40
0.044297000415270169
10
-24.549244484600283
20
32.156175111974612
30
0
10
-24.483874733800054
20
32.115569457411233
30
0
10
-24.356238831571432
20
32.036286007614727
30
0
10
-24.281668126825551
20
31.906009001587794
30
0
10
-24.245289406475283
20
31.842454408849612
30
0
0
SPLINE
5
107
100
AcDbEntity
8
0
100
AcDbSpline
70
1064
71
3
72
9
73
5
74
0
42
0.000000001
43
0.0000000001
44
0.0000000001
40
0
40
0
40
0
40
0
40
0.025478815096714128
40
0.059126088459751161
40
0.059126088459751161
40
0.059126088459751161
40
0.059126088459751161
10
-24.245289406475283
20
31.842454408849612
30
0
10
-24.218714467058057
20
31.761301953058041
30
0
10
-24.157044714644883
20
31.572979722936864
30
0
10
-24.15493644118925
20
31.3744043304516
30
0
10
-24.153736672100283
20
31.261399721349612
30
0
0
LINE
5
108
100
AcDbEntity
8
0
100
AcDbLine
10
-24.153736672100287
20
31.261399721349608
30
0
11
-24.153736672100283
21
29.618333315099612
31
0
0
LINE
5
109
100
AcDbEntity
8
0
100
AcDbLine
10
-24.153736672100283
20
29.618333315099612
30
0
11
-24.593189797100283
21
29.618333315099612
31
0
0
LINE
5
110
100
AcDbEntity
8
0
100
AcDbLine
10
-24.593189797100283
20
29.618333315099612
30
0
11
-24.593189797100283
21
31.261399721349612
31
0
0
SPLINE
5
111
100
AcDbEntity
8
0
100
AcDbSpline
70
1064
71
3
72
9
73
5
74
0
42
0.000000001
43
0.0000000001
44
0.0000000001
40
0
40
0
40
0
40
0
40
0.028695904435622248
40
0.050944914245156882
40
0.050944914245156882
40
0.050944914245156882
40
0.050944914245156882
10
-24.593189797100283
20
31.261399721349612
30
0
10
-24.595473821846557
20
31.359427685533952
30
0
10
-24.599528736550276
20
31.533460402997257
30
0
10
-24.694524754835676
20
31.678008166178948
30
0
10
-24.736012062725283
20
31.741136049474612
30
0
0
SPLINE
5
112
100
AcDbEntity
8
0
100
AcDbSpline
70
1064
71
3
72
9
73
5
74
0
42
0.000000001
43
0.0000000001
44
0.0000000001
40
0
40
0
40
0
40
0
40
0.020593961784072638
40
0.044058982971755742
40
0.044058982971755742
40
0.044058982971755742
40
0.044058982971755742
10
-24.736012062725283
20
31.741136049474612
30
0
10
-24.791082495966776
20
31.784878893346701
30
0
10
-24.908900879135313
20
31.878462888184792
30
0
10
-25.059733864413474
20
31.886827625393156
30
0
10
-25.140064797100283
20
31.891282533849612
30
0
0
SPLINE
5
113
100
AcDbEntity
8
0
100
AcDbSpline
70
1064
71
3
72
9
73
5
74
0
42
0.000000001
43
0.0000000001
44
0.0000000001
40
0
40
0
40
0
40
0
40
0.019119938551517727
40
0.038466494563175579
40
0.038466494563175579
40
0.038466494563175579
40
0.038466494563175579
10
-25.140064797100283
20
31.891282533849612
30
0
10
-25.204369528266856
20
31.886962326795583
30
0
10
-25.333741157006173
20
31.878270707797569
30
0
10
-25.449350980301233
20
31.819515067848009
30
0
10
-25.507496437725283
20
31.789964174474612
30
0
0
SPLINE
5
114
100
AcDbEntity
8
0
100
AcDbSpline
70
1064
71
3
72
9
73
5
74
0
42
0.000000001
43
0.0000000001
44
0.0000000001
40
0
40
0
40
0
40
0
40
0.018964409788845508
40
0.03732884262421797
40
0.03732884262421797
40
0.03732884262421797
40
0.03732884262421797
10
-25.507496437725283
20
31.789964174474612
30
0
10
-25.560544837700281
20
31.753668428520811
30
0
10
-25.664963345641297
20
31.682225224976719
30
0
10
-25.723875251117367
20
31.570346322215485
30
0
10
-25.752857765850283
20
31.515305971349612
30
0
0
SPLINE
5
115
100
AcDbEntity
8
0
100
AcDbSpline
70
1064
71
3
72
9
73
5
74
0
42
0.000000001
43
0.0000000001
44
0.0000000001
40
0
40
0
40
0
40
0
40
0.021348698233733702
40
0.048631890977206119
40
0.048631890977206119
40
0.048631890977206119
40
0.048631890977206119
10
-25.752857765850283
20
31.515305971349612
30
0
10
-25.774139067523166
20
31.447030395099173
30
0
10
-25.822617430535175
20
31.291500051081734
30
0
10
-25.824848366227656
20
31.128330704698008
30
0
10
-25.826099953350283
20
31.036790346349612
30
0
0
LINE
5
116
100
AcDbEntity
8
0
100
AcDbLine
10
-25.826099953350287
20
31.036790346349612
30
0
11
-25.826099953350283
21
29.618333315099612
31
0
0
LINE
5
117
100
AcDbEntity
8
0
100
AcDbLine
10
-25.826099953350283
20
29.618333315099612
30
0
11
-26.265553078350283
21
29.618333315099612
31
0
0
LINE
5
118
100
AcDbEntity
8
0
100
AcDbLine
10
-27.073658547100283
20
30.568040346349612
30
0
11
-26.641529640850283
21
30.511888002599612
31
0
0
SPLINE
5
119
100
AcDbEntity
8
0
100
AcDbSpline
70
1064
71
3
72
9
73
5
74
0
42
0.000000001
43
0.0000000001
44
0.0000000001
40
0
40
0
40
0
40
0
40
0.041772244228244583
40
0.08006899608227272
40
0.08006899608227272
40
0.08006899608227272
40
0.08006899608227272
10
-26.641529640850283
20
30.511888002599612
30
0
10
-26.672070147160873
20
30.373075152902892
30
0
10
-26.730610159202648
20
30.106998821025552
30
0
10
-26.915598919934297
20
29.907733226314544
30
0
10
-27.004078468975283
20
29.812425111974612
30
0
0
SPLINE
5
120
100
AcDbEntity
8
0
100
AcDbSpline
70
1064
71
3
72
9
73
5
74
0
42
0.000000001
43
0.0000000001
44
0.0000000001
40
0
40
0
40
0
40
0
40
0.037622938696897784
40
0.077283323043571939
40
0.077283323043571939
40
0.077283323043571939
40
0.077283323043571939
10
-27.004078468975283
20
29.812425111974612
30
0
10
-27.108650008726471
20
29.738739420112999
30
0
10
-27.323456091602203
20
29.587377635917772
30
0
10
-27.585932911869779
20
29.569112762988667
30
0
10
-27.720631203350283
20
29.559739565099612
30
0
0
SPLINE
5
121
100
AcDbEntity
8
0
100
AcDbSpline
70
1064
71
3
72
9
73
5
74
0
42
0.000000001
43
0.0000000001
44
0.0000000001
40
0
40
0
40
0
40
0
40
0.048785706214514148
40
0.094525295118440322
40
0.094525295118440322
40
0.094525295118440322
40
0.094525295118440322
10
-27.720631203350283
20
29.559739565099612
30
0
10
-27.887470761646934
20
29.572273546084439
30
0
10
-28.210732628884788
20
29.596558902258039
30
0
10
-28.457120253822001
20
29.806198175762834
30
0
10
-28.576344093975283
20
29.907639955724612
30
0
0
SPLINE
5
122
100
AcDbEntity
8
0
100
AcDbSpline
70
1064
71
3
72
9
73
5
74
0
42
0.000000001
43
0.0000000001
44
0.0000000001
40
0
40
0
40
0
40
0
40
0.048787996969201268
40
0.10675843201782281
40
0.10675843201782281
40
0.10675843201782281
40
0.10675843201782281
10
-28.576344093975283
20
29.907639955724612
30
0
10
-28.670510639491699
20
30.044175868685748
30
0
10
-28.876566910959738
20
30.34294525639098
30
0
10
-28.891643661117875
20
30.707175381715327
30
0
10
-28.899830422100283
20
30.904954408849612
30
0
0
SPLINE
5
123
100
AcDbEntity
8
0
100
AcDbSpline
70
1064
71
3
72
9
73
5
74
0
42
0.000000001
43
0.0000000001
44
0.0000000001
40
0
40
0
40
0
40
0
40
0.0395211002452781
40
0.075200417102121109
40
0.075200417102121109
40
0.075200417102121109
40
0.075200417102121109
10
-28.899830422100283
20
30.904954408849612
30
0
10
-28.895312654686123
20
31.037559796597407
30
0
10
-28.886716284853122
20
31.289880212950536
30
0
10
-28.801229849553923
20
31.527213432482011
30
0
10
-28.760670265850283
20
31.639817690099612
30
0
0
SPLINE
5
124
100
AcDbEntity
8
0
100
AcDbSpline
70
1064
71
3
72
9
73
5
74
0
42
0.000000001
43
0.0000000001
44
0.0000000001
40
0
40
0
40
0
40
0
40
0.032669976055652007
40
0.064340606376588505
40
0.064340606376588505
40
0.064340606376588505
40
0.064340606376588505
10
-28.760670265850283
20
31.639817690099612
30
0
10
-28.708987444580437
20
31.737813158760353
30
0
10
-28.607202733930809
20
31.93080650118123
30
0
10
-28.426187917945946
20
32.052384822891753
30
0
10
-28.337086281475283
20
32.112229799474612
30
0
0
SPLINE
5
125
100
AcDbEntity
8
0
100
AcDbSpline
70
1064
71
3
72
9
73
5
74
0
42
0.000000001
43
0.0000000001
44
0.0000000001
40
0
40
0
40
0
40
0
40
0.031956115853162173
40
0.06439195170759282
40
0.06439195170759282
40
0.06439195170759282
40
0.06439195170759282
10
-28.337086281475283
20
32.112229799474612
30
0
10
-28.23978357990157
20
32.158158031604017
30
0
10
-28.04371748446172
20
32.250703962995701
30
0
10
-27.827236620323053
20
32.263336950814441
30
0
10
-27.718189797100283
20
32.269700502599612
30
0
0
SPLINE
5
126
100
AcDbEntity
8
0
100
AcDbSpline
70
1064
71
3
72
9
73
5
74
0
42
0.000000001
43
0.0000000001
44
0.0000000001
40
0
40
0
40
0
40
0
40
0.038760796338844342
40
0.073390664339631484
40
0.073390664339631484
40
0.073390664339631484
40
0.073390664339631484
10
-27.718189797100283
20
32.269700502599612
30
0
10
-27.586673635376329
20
32.262982862265666
30
0
10
-27.337657634880827
20
32.250263513504279
30
0
10
-27.12677716568372
20
32.118330782965316
30
0
10
-27.027271828350283
20
32.056077455724612
30
0
0
SPLINE
5
127
100
AcDbEntity
8
0
100
AcDbSpline
70
1064
71
3
72
9
73
5
74
0
42
0.000000001
43
0.0000000001
44
0.0000000001
40
0
40
0
40
0
40
0
40
0.033965022507252529
40
0.070924279164716442
40
0.070924279164716442
40
0.070924279164716442
40
0.070924279164716442
10
-27.027271828350283
20
32.056077455724612
30
0
10
-26.945327996345473
20
31.974825753639667
30
0
10
-26.774216459007469
20
31.805159491824284
30
0
10
-26.714271424300627
20
31.571269897565823
30
0
10
-26.683033547100283
20
31.449388002599612
30
0
0
LINE
5
128
100
AcDbEntity
8
0
100
AcDbLine
10
-26.68303354710028
20
31.449388002599616
30
0
11
-27.110279640850283
21
31.383470033849612
31
0
0
SPLINE
5
129
100
AcDbEntity
8
0
100
AcDbSpline
70
1064
71
3
72
9
73
5
74
0
42
0.000000001
43
0.0000000001
44
0.0000000001
40
0
40
0
40
0
40
0
40
0.024399352410440688
40
0.045436679808904312
40
0.045436679808904312
40
0.045436679808904312
40
0.045436679808904312
10
-27.110279640850283
20
31.383470033849612
30
0
10
-27.13237002463179
20
31.463205998212342
30
0
10
-27.173506923589258
20
31.611690983430773
30
0
10
-27.277975028724931
20
31.72436705859575
30
0
10
-27.326344093975283
20
31.776536440099612
30
0
0
SPLINE
5
130
100
AcDbEntity
8
0
100
AcDbSpline
70
1064
71
3
72
9
73
5
74
0
42
0.000000001
43
0.0000000001
44
0.0000000001
40
0
40
0
40
0
40
0
40
0.019770515688731855
40
0.040390848261423806
40
0.040390848261423806
40
0.040390848261423806
40
0.040390848261423806
10
-27.326344093975283
20
31.776536440099612
30
0
10
-27.38145733064211
20
31.81498382538291
30
0
10
-27.494052794233092
20
31.893531220376325
30
0
10
-27.631122922569062
20
31.903356418335687
30
0
10
-27.701099953350283
20
31.908372377599612
30
0
0
SPLINE
5
131
100
AcDbEntity
8
0
100
AcDbSpline
70
1064
71
3
72
9
73
5
74
0
42
0.000000001
43
0.0000000001
44
0.0000000001
40
0
40
0
40
0
40
0
40
0.030673141714709033
40
0.060476631010711573
40
0.060476631010711573
40
0.060476631010711573
40
0.060476631010711573
10
-27.701099953350283
20
31.908372377599612
30
0
10
-27.806075004677197
20
31.899037144389265
30
0
10
-28.013048828991501
20
31.880631352784611
30
0
10
-28.165514249020561
20
31.739758714758377
30
0
10
-28.240650734600283
20
31.670335268224612
30
0
0
SPLINE
5
132
100
AcDbEntity
8
0
100
AcDbSpline
70
1064
71
3
72
9
73
5
74
0
42
0.000000001
43
0.0000000001
44
0.0000000001
40
0
40
0
40
0
40
0
40
0.034447695527041244
40
0.079334696047205139
40
0.079334696047205139
40
0.079334696047205139
40
0.079334696047205139
10
-28.240650734600283
20
31.670335268224612
30
0
10
-28.300912653995198
20
31.570420411699939
30
0
10
-28.439698746512292
20
31.340311701909393
30
0
10
-28.445109117086108
20
31.070065051520359
30
0
10
-28.448170265850283
20
30.917161440099612
30
0
0
SPLINE
5
133
100
AcDbEntity
8
0
100
AcDbSpline
70
1064
71
3
72
9
73
5
74
0
42
0.000000001
43
0.0000000001
44
0.0000000001
40
0
40
0
40
0
40
0
40
0.045381803788007116
40
0.07966710422517656
40
0.07966710422517656
40
0.07966710422517656
40
0.07966710422517656
10
-28.448170265850283
20
30.917161440099612
30
0
10
-28.445604295692593
20
30.762723004008102
30
0
10
-28.441099771964396
20
30.491608549370074
30
0
10
-28.306081163988651
20
30.258293062434532
30
0
10
-28.247974953350283
20
30.157884096349612
30
0
0
SPLINE
5
134
100
AcDbEntity
8
0
100
AcDbSpline
70
1064
71
3
72
9
73
5
74
0
42
0.000000001
43
0.0000000001
44
0.0000000001
40
0
40
0
40
0
40
0
40
0.02911607265359608
40
0.05888552822423089
40
0.05888552822423089
40
0.05888552822423089
40
0.05888552822423089
10
-28.247974953350283
20
30.157884096349612
30
0
10
-28.175572794545086
20
30.088815047542504
30
0
10
-28.029143727117543
20
29.949126997188316
30
0
10
-27.827469831672325
20
29.930489724371849
30
0
10
-27.725514015850283
20
29.921067690099612
30
0
0
SPLINE
5
135
100
AcDbEntity
8
0
100
AcDbSpline
70
1064
71
3
72
9
73
5
74
0
42
0.000000001
43
0.0000000001
44
0.0000000001
40
0
40
0
40
0
40
0
40
0.024071850879493185
40
0.046891654333090171
40
0.046891654333090171
40
0.046891654333090171
40
0.046891654333090171
10
-27.725514015850283
20
29.921067690099612
30
0
10
-27.643630305626768
20
29.926944572435261
30
0
10
-27.484121896633461
20
29.938392663253826
30
0
10
-27.355822134010054
20
30.033483285735333
30
0
10
-27.293385109600283
20
30.079759096349612
30
0
0
SPLINE
5
136
100
AcDbEntity
8
0
100
AcDbSpline
70
1064
71
3
72
9
73
5
74
0
42
0.000000001
43
0.0000000001
44
0.0000000001
40
0
40
0
40
0
40
0
40
0.024621010103708509
40
0.054352336733716741
40
0.054352336733716741
40
0.054352336733716741
40
0.054352336733716741
10
-27.293385109600283
20
30.079759096349612
30
0
10
-27.240378406918953
20
30.144169121475393
30
0
10
-27.123362974118095
20
30.286358063355429
30
0
10
-27.091233644277381
20
30.468439691162178
30
0
10
-27.073658547100283
20
30.568040346349612
30
0
0
LINE
5
137
100
AcDbEntity
8
0
100
AcDbLine
10
-29.195240578350283
20
30.011399721349612
30
0
11
-29.131764015850283
21
29.623216127599612
31
0
0
SPLINE
5
138
100
AcDbEntity
8
0
100
AcDbSpline
70
1064
71
3
72
9
73
5
74
0
42
0.000000001
43
0.0000000001
44
0.0000000001
40
0
40
0
40
0
40
0
40
0.017820593350483065
40
0.033476081184351622
40
0.033476081184351622
40
0.033476081184351622
40
0.033476081184351622
10
-29.131764015850283
20
29.623216127599612
30
0
10
-29.190173431235642
20
29.611837456566818
30
0
10
-29.299895834576255
20
29.590462561367072
30
0
10
-29.411569668264811
20
29.586163932538266
30
0
10
-29.463795265850283
20
29.584153627599612
30
0
0
SPLINE
5
139
100
AcDbEntity
8
0
100
AcDbSpline
70
1064
71
3
72
9
73
5
74
0
42
0.000000001
43
0.0000000001
44
0.0000000001
40
0
40
0
40
0
40
0
40
0.021324341965972913
40
0.03817811483638453
40
0.03817811483638453
40
0.03817811483638453
40
0.03817811483638453
10
-29.463795265850283
20
29.584153627599612
30
0
10
-29.53567749498399
20
29.585536198278778
30
0
10
-29.664372110880745
20
29.588011488829022
30
0
10
-29.782667416579809
20
29.637840254997982
30
0
10
-29.834889015850283
20
29.659837221349612
30
0
0
SPLINE
5
140
100
AcDbEntity
8
0
100
AcDbSpline
70
1064
71
3
72
9
73
5
74
0
42
0.000000001
43
0.0000000001
44
0.0000000001
40
0
40
0
40
0
40
0
40
0.014242034176803147
40
0.027573186801426373
40
0.027573186801426373
40
0.027573186801426373
40
0.027573186801426373
10
-29.834889015850283
20
29.659837221349612
30
0
10
-29.87525584246201
20
29.686328003223249
30
0
10
-29.953407743863757
20
29.737615289017533
30
0
10
-29.998590715737787
20
29.819312608447852
30
0
10
-30.020435890850283
20
29.858811830724612
30
0
0
SPLINE
5
141
100
AcDbEntity
8
0
100
AcDbSpline
70
1064
71
3
72
9
73
5
74
0
42
0.000000001
43
0.0000000001
44
0.0000000001
40
0
40
0
40
0
40
0
40
0.019553958089760459
40
0.05232683908936011
40
0.05232683908936011
40
0.05232683908936011
40
0.05232683908936011
10
-30.020435890850283
20
29.858811830724612
30
0
10
-30.035873544379825
20
29.922342564064945
30
0
10
-30.077185058317284
20
30.092352259568464
30
0
10
-30.075316885655454
20
30.267754368323573
30
0
10
-30.074146828350283
20
30.377610658849612
30
0
0
LINE
5
142
100
AcDbEntity
8
0
100
AcDbLine
10
-30.074146828350283
20
30.377610658849608
30
0
11
-30.074146828350283
21
31.869309877599612
31
0
0
LINE
5
143
100
AcDbEntity
8
0
100
AcDbLine
10
-30.074146828350283
20
31.869309877599612
30
0
11
-30.396412453350283
21
31.869309877599612
31
0
0
LINE
5
144
100
AcDbEntity
8
0
100
AcDbLine
10
-30.396412453350283
20
31.869309877599612
30
0
11
-30.396412453350283
21
32.211106752599612
31
0
0
LINE
5
145
100
AcDbEntity
8
0
100
AcDbLine
10
-30.396412453350283
20
32.211106752599612
30
0
11
-30.074146828350283
21
32.211106752599612
31
0
0
LINE
5
146
100
AcDbEntity
8
0
100
AcDbLine
10
-30.074146828350283
20
32.211106752599612
30
0
11
-30.074146828350283
21
32.853196596349612
31
0
0
LINE
5
147
100
AcDbEntity
8
0
100
AcDbLine
10
-30.074146828350283
20
32.853196596349612
30
0
11
-29.637135109600283
21
33.116868471349612
31
0
0
LINE
5
148
100
AcDbEntity
8
0
100
AcDbLine
10
-29.637135109600283
20
33.116868471349612
30
0
11
-29.637135109600283
21
32.211106752599612
31
0
0
LINE
5
149
100
AcDbEntity
8
0
100
AcDbLine
10
-29.637135109600283
20
32.211106752599612
30
0
11
-29.195240578350283
21
32.211106752599612
31
0
0
LINE
5
150
100
AcDbEntity
8
0
100
AcDbLine
10
-29.195240578350283
20
32.211106752599612
30
0
11
-29.195240578350283
21
31.869309877599612
31
0
0
LINE
5
151
100
AcDbEntity
8
0
100
AcDbLine
10
-29.195240578350283
20
31.869309877599612
30
0
11
-29.637135109600283
21
31.869309877599612
31
0
0
LINE
5
152
100
AcDbEntity
8
0
100
AcDbLine
10
-29.637135109600283
20
31.869309877599612
30
0
11
-29.637135109600283
21
30.353196596349612
31
0
0
SPLINE
5
153
100
AcDbEntity
8
0
100
AcDbSpline
70
1064
71
3
72
9
73
5
74
0
42
0.000000001
43
0.0000000001
44
0.0000000001
40
0
40
0
40
0
40
0
40
0.015452776907846849
40
0.024352458270579639
40
0.024352458270579639
40
0.024352458270579639
40
0.024352458270579639
10
-29.637135109600283
20
30.353196596349612
30
0
10
-29.637783364087547
20
30.301419914600437
30
0
10
-29.638804966252902
20
30.219823610634798
30
0
10
-29.620596200216735
20
30.140490067028608
30
0
10
-29.613941750225283
20
30.111497377599612
30
0
0
SPLINE
5
154
100
AcDbEntity
8
0
100
AcDbSpline
70
1064
71
3
72
9
73
5
74
0
42
0.000000001
43
0.0000000001
44
0.0000000001
40
0
40
0
40
0
40
0
40
0.0057063791057776377
40
0.011559711052195356
40
0.011559711052195356
40
0.011559711052195356
40
0.011559711052195356
10
-29.613941750225283
20
30.111497377599612
30
0
10
-29.604881116130464
20
30.094443994073018
30
0
10
-29.586526515052576
20
30.059898061814486
30
0
10
-29.554483392080808
20
30.03742668231752
30
0
10
-29.538258156475283
20
30.026048158849612
30
0
0
SPLINE
5
155
100
AcDbEntity
8
0
100
AcDbSpline
70
1064
71
3
72
9
73
5
74
0
42
0.000000001
43
0.0000000001
44
0.0000000001
40
0
40
0
40
0
40
0
40
0.0068078827784957699
40
0.01548072935495607
40
0.01548072935495607
40
0.01548072935495607
40
0.01548072935495607
10
-29.538258156475283
20
30.026048158849612
30
0
10
-29.517291602616716
20
30.016825417985054
30
0
10
-29.469614878978675
20
29.995853441839103
30
0
10
-29.417377103055639
20
29.994864126621291
30
0
10
-29.388111672100283
20
29.994309877599612
30
0
0
SPLINE
5
156
100
AcDbEntity
8
0
100
AcDbSpline
70
1064
71
3
72
9
73
5
74
0
42
0.000000001
43
0.0000000001
44
0.0000000001
40
0
40
0
40
0
40
0
40
0.0084946379017123083
40
0.019373630170398549
40
0.019373630170398549
40
0.019373630170398549
40
0.019373630170398549
10
-29.388111672100283
20
29.994309877599612
30
0
10
-29.359796671538085
20
29.995314879505479
30
0
10
-29.295218951391103
20
29.997606976646054
30
0
10
-29.231193294500329
20
30.006439782313052
30
0
10
-29.195240578350283
20
30.011399721349612
30
0
0
LWPOLYLINE
5
157
100
AcDbEntity
8
0
100
AcDbPolyline
90
12
70
1
43
0.0
10
-33.42375620335028
20
33.197434877599612
10
-33.42375620335028
20
29.618333315099612
10
-30.752857765850283
20
29.618333315099612
10
-30.752857765850283
20
30.040696596349612
10
-32.95012339085028
20
30.040696596349612
10
-32.95012339085028
20
31.258958315099612
10
-30.970142922100283
20
31.258958315099612
10
-30.970142922100283
20
31.678880190099612
10
-32.95012339085028
20
31.678880190099612
10
-32.95012339085028
20
32.775071596349612
10
-30.835865578350283
20
32.775071596349612
10
-30.835865578350283
20
33.197434877599612
0
LINE
5
158
100
AcDbEntity
8
0
100
AcDbLine
10
-17.229604776531488
20
17.473720801970959
30
0
11
-16.350698526531488
21
17.590908301970959
31
0
0
SPLINE
5
159
100
AcDbEntity
8
0
100
AcDbSpline
70
1064
71
3
72
9
73
5
74
0
42
0.000000001
43
0.0000000001
44
0.0000000001
40
0
40
0
40
0
40
0
40
0.067444096215251825
40
0.12081416659917185
40
0.12081416659917185
40
0.12081416659917185
40
0.12081416659917185
10
-16.350698526531488
20
17.590908301970959
30
0
10
-16.300046102049784
20
17.36790091938979
30
0
10
-16.209311244688021
20
16.968422646510014
30
0
10
-15.950078678533623
20
16.653407265360741
30
0
10
-15.835561807781486
20
16.514248145720959
30
0
0
SPLINE
5
160
100
AcDbEntity
8
0
100
AcDbSpline
70
1064
71
3
72
9
73
5
74
0
42
0.000000001
43
0.0000000001
44
0.0000000001
40
0
40
0
40
0
40
0
40
0.047314884589307556
40
0.096291785011051456
40
0.096291785011051456
40
0.096291785011051456
40
0.096291785011051456
10
-15.835561807781486
20
16.514248145720959
30
0
10
-15.706237321472084
20
16.418125818262258
30
0
10
-15.443045606212493
20
16.222504703030648
30
0
10
-15.115785619446276
20
16.197418102271342
30
0
10
-14.949331339031486
20
16.184658301970959
30
0
0
SPLINE
5
161
100
AcDbEntity
8
0
100
AcDbSpline
70
1064
71
3
72
9
73
5
74
0
42
0.000000001
43
0.0000000001
44
0.0000000001
40
0
40
0
40
0
40
0
40
0.058190067797996806
40
0.11562881970448702
40
0.11562881970448702
40
0.11562881970448702
40
0.11562881970448702
10
-14.949331339031486
20
16.184658301970959
30
0
10
-14.751131323256228
20
16.202092056168471
30
0
10
-14.357290333603821
20
16.236734470194769
30
0
10
-14.053083272463327
20
16.489021783143642
30
0
10
-13.901968057781486
20
16.614345801970959
30
0
0
SPLINE
5
162
100
AcDbEntity
8
0
100
AcDbSpline
70
1064
71
3
72
9
73
5
74
0
42
0.000000001
43
0.0000000001
44
0.0000000001
40
0
40
0
40
0
40
0
40
0.057792558323729704
40
0.11711172832471239
40
0.11711172832471239
40
0.11711172832471239
40
0.11711172832471239
10
-13.901968057781486
20
16.614345801970959
30
0
10
-13.777360585891586
20
16.767466348463127
30
0
10
-13.524854089926215
20
17.077752176982315
30
0
10
-13.491577266173461
20
17.476716442103161
30
0
10
-13.474721964031486
20
17.678798926970959
30
0
0
SPLINE
5
163
100
AcDbEntity
8
0
100
AcDbSpline
70
1064
71
3
72
9
73
5
74
0
42
0.000000001
43
0.0000000001
44
0.0000000001
40
0
40
0
40
0
40
0
40
0.056114814490387507
40
0.10969231458615455
40
0.10969231458615455
40
0.10969231458615455
40
0.10969231458615455
10
-13.474721964031486
20
17.678798926970959
30
0
10
-13.489622537734178
20
17.87017493821066
30
0
10
-13.518749933644754
20
18.244273611079748
30
0
10
-13.754890567305267
20
18.535223935470619
30
0
10
-13.870229776531486
20
18.677334083220959
30
0
0
SPLINE
5
164
100
AcDbEntity
8
0
100
AcDbSpline
70
1064
71
3
72
9
73
5
74
0
42
0.000000001
43
0.0000000001
44
0.0000000001
40
0
40
0
40
0
40
0
40
0.053731220923719077
40
0.11025600401777735
40
0.11025600401777735
40
0.11025600401777735
40
0.11025600401777735
10
-13.870229776531486
20
18.677334083220959
30
0
10
-14.013478783831532
20
18.7919579433844
30
0
10
-14.307424516924755
20
19.027165120318923
30
0
10
-14.683359247319839
20
19.055747303659626
30
0
10
-14.876089151531486
20
19.070400489470959
30
0
0
SPLINE
5
165
100
AcDbEntity
8
0
100
AcDbSpline
70
1064
71
3
72
9
73
5
74
0
42
0.000000001
43
0.0000000001
44
0.0000000001
40
0
40
0
40
0
40
0
40
0.028060510662568205
40
0.062896777236185808
40
0.062896777236185808
40
0.062896777236185808
40
0.062896777236185808
10
-14.876089151531486
20
19.070400489470959
30
0
10
-14.969656729123372
20
19.064833869959418
30
0
10
-15.179385595254702
20
19.052356462417329
30
0
10
-15.383277779191085
20
19.001121464951375
30
0
10
-15.496206339031486
20
18.972744239470959
30
0
0
LINE
5
166
100
AcDbEntity
8
0
100
AcDbLine
10
-15.496206339031488
20
18.972744239470959
30
0
11
-15.398550089031486
21
19.744228614470959
31
0
0
SPLINE
5
167
100
AcDbEntity
8
0
100
AcDbSpline
70
1064
71
3
72
9
73
5
74
0
42
0.000000001
43
0.0000000001
44
0.0000000001
40
0
40
0
40
0
40
0
40
0.0079683026954919869
40
0.014198673865010954
40
0.014198673865010954
40
0.014198673865010954
40
0.014198673865010954
10
-15.398550089031486
20
19.744228614470959
30
0
10
-15.372127348081932
20
19.741394200063638
30
0
10
-15.325044814235087
20
19.736343572934402
30
0
10
-15.277716269073668
20
19.735036522544714
30
0
10
-15.256948526531486
20
19.734462989470959
30
0
0
SPLINE
5
168
100
AcDbEntity
8
0
100
AcDbSpline
70
1064
71
3
72
9
73
5
74
0
42
0.000000001
43
0.0000000001
44
0.0000000001
40
0
40
0
40
0
40
0
40
0.053845185785971104
40
0.10638947231797463
40
0.10638947231797463
40
0.10638947231797463
40
0.10638947231797463
10
-15.256948526531486
20
19.734462989470959
30
0
10
-15.07539297753353
20
19.74606187823348
30
0
10
-14.716668260135947
20
19.768979426699637
30
0
10
-14.401743376371952
20
19.941986126937916
30
0
10
-14.246206339031486
20
20.027431739470959
30
0
0
SPLINE
5
169
100
AcDbEntity
8
0
100
AcDbSpline
70
1064
71
3
72
9
73
5
74
0
42
0.000000001
43
0.0000000001
44
0.0000000001
40
0
40
0
40
0
40
0
40
0.0502124623491043
40
0.10448764687435994
40
0.10448764687435994
40
0.10448764687435994
40
0.10448764687435994
10
-14.246206339031486
20
20.027431739470959
30
0
10
-14.115238680795702
20
20.142010005182982
30
0
10
-13.842706688029436
20
20.380437136757571
30
0
10
-13.812617270818883
20
20.742619582255635
30
0
10
-13.796987589031486
20
20.930752051970959
30
0
0
SPLINE
5
170
100
AcDbEntity
8
0
100
AcDbSpline
70
1064
71
3
72
9
73
5
74
0
42
0.000000001
43
0.0000000001
44
0.0000000001
40
0
40
0
40
0
40
0
40
0.044939949711651377
40
0.088414293666955121
40
0.088414293666955121
40
0.088414293666955121
40
0.088414293666955121
10
-13.796987589031486
20
20.930752051970959
30
0
10
-13.809692088249957
20
21.084057267636602
30
0
10
-13.834686760740704
20
21.385668027005643
30
0
10
-14.028725101333826
20
21.617526013722951
30
0
10
-14.124136026531486
20
21.731533301970959
30
0
0
SPLINE
5
171
100
AcDbEntity
8
0
100
AcDbSpline
70
1064
71
3
72
9
73
5
74
0
42
0.000000001
43
0.0000000001
44
0.0000000001
40
0
40
0
40
0
40
0
40
0.044396353406051324
40
0.09205851894646791
40
0.09205851894646791
40
0.09205851894646791
40
0.09205851894646791
10
-14.124136026531486
20
21.731533301970959
30
0
10
-14.24398989178481
20
21.824071143700326
30
0
10
-14.492514116833588
20
22.015953944933884
30
0
10
-14.806368396992568
20
22.037671906880529
30
0
10
-14.968862589031486
20
22.048916114470959
30
0
0
SPLINE
5
172
100
AcDbEntity
8
0
100
AcDbSpline
70
1064
71
3
72
9
73
5
74
0
42
0.000000001
43
0.0000000001
44
0.0000000001
40
0
40
0
40
0
40
0
40
0.047682639148000916
40
0.093100178082900692
40
0.093100178082900692
40
0.093100178082900692
40
0.093100178082900692
10
-14.968862589031486
20
22.048916114470959
30
0
10
-15.131176526089941
20
22.036844030831617
30
0
10
-15.448093892986831
20
22.013273331794462
30
0
10
-15.70031329017098
20
21.820629110986836
30
0
10
-15.823354776531486
20
21.726650489470959
30
0
0
SPLINE
5
173
100
AcDbEntity
8
0
100
AcDbSpline
70
1064
71
3
72
9
73
5
74
0
42
0.000000001
43
0.0000000001
44
0.0000000001
40
0
40
0
40
0
40
0
40
0.049102015041793866
40
0.10768864384082655
40
0.10768864384082655
40
0.10768864384082655
40
0.10768864384082655
10
-15.823354776531486
20
21.726650489470959
30
0
10
-15.928170930586226
20
21.59767996817688
30
0
10
-16.158049673305008
20
21.314826799691172
30
0
10
-16.22589663184413
20
20.955396869217783
30
0
10
-16.262807901531488
20
20.759853614470959
30
0
0
LINE
5
174
100
AcDbEntity
8
0
100
AcDbLine
10
-16.262807901531488
20
20.759853614470956
30
0
11
-17.141714151531488
21
20.916103614470959
31
0
0
SPLINE
5
175
100
AcDbEntity
8
0
100
AcDbSpline
70
1064
71
3
72
9
73
5
74
0
42
0.000000001
43
0.0000000001
44
0.0000000001
40
0
40
0
40
0
40
0
40
0.082743707009886439
40
0.15773266841074696
40
0.15773266841074696
40
0.15773266841074696
40
0.15773266841074696
10
-17.141714151531488
20
20.916103614470959
30
0
10
-17.075991695970426
20
21.189641812185176
30
0
10
-16.950706297663167
20
21.711082189911718
30
0
10
-16.583749954425006
20
22.100565239489175
30
0
10
-16.409292276531488
20
22.285732520720959
30
0
0
SPLINE
5
176
100
AcDbEntity
8
0
100
AcDbSpline
70
1064
71
3
72
9
73
5
74
0
42
0.000000001
43
0.0000000001
44
0.0000000001
40
0
40
0
40
0
40
0
40
0.073721499876486324
40
0.15266440494681205
40
0.15266440494681205
40
0.15266440494681205
40
0.15266440494681205
10
-16.409292276531488
20
22.285732520720959
30
0
10
-16.202716966075826
20
22.427390014775874
30
0
10
-15.774935424730989
20
22.720738048556825
30
0
10
-15.25648502203061
20
22.75424558590241
30
0
10
-14.988393839031486
20
22.771572364470959
30
0
0
SPLINE
5
177
100
AcDbEntity
8
0
100
AcDbSpline
70
1064
71
3
72
9
73
5
74
0
42
0.000000001
43
0.0000000001
44
0.0000000001
40
0
40
0
40
0
40
0
40
0.05662447600511708
40
0.11159669002494177
40
0.11159669002494177
40
0.11159669002494177
40
0.11159669002494177
10
-14.988393839031486
20
22.771572364470959
30
0
10
-14.798202131807294
20
22.76172916739884
30
0
10
-14.423368376268533
20
22.742329990752815
30
0
10
-14.078951202603465
20
22.593446906920693
30
0
10
-13.909292276531486
20
22.520107520720959
30
0
0
SPLINE
5
178
100
AcDbEntity
8
0
100
AcDbSpline
70
1064
71
3
72
9
73
5
74
0
42
0.000000001
43
0.0000000001
44
0.0000000001
40
0
40
0
40
0
40
0
40
0.05270052635918069
40
0.10300541925405307
40
0.10300541925405307
40
0.10300541925405307
40
0.10300541925405307
10
-13.909292276531486
20
22.520107520720959
30
0
10
-13.755639668853545
20
22.430412773476217
30
0
10
-13.455319114833353
20
22.255100576746678
30
0
10
-13.253473402762095
20
21.972222100306574
30
0
10
-13.154897745281486
20
21.834072364470959
30
0
0
SPLINE
5
179
100
AcDbEntity
8
0
100
AcDbSpline
70
1064
71
3
72
9
73
5
74
0
42
0.000000001
43
0.0000000001
44
0.0000000001
40
0
40
0
40
0
40
0
40
0.04889662705833564
40
0.096828969601146037
40
0.096828969601146037
40
0.096828969601146037
40
0.096828969601146037
10
-13.154897745281486
20
21.834072364470959
30
0
10
-13.078707705894686
20
21.687803929503811
30
0
10
-12.92783016174643
20
21.398151601825994
30
0
10
-12.904979049629709
20
21.072449886922094
30
0
10
-12.893667276531486
20
20.911220801970959
30
0
0
SPLINE
5
180
100
AcDbEntity
8
0
100
AcDbSpline
70
1064
71
3
72
9
73
5
74
0
42
0.000000001
43
0.0000000001
44
0.0000000001
40
0
40
0
40
0
40
0
40
0.04474672088116971
40
0.089038231028940068
40
0.089038231028940068
40
0.089038231028940068
40
0.089038231028940068
10
-12.893667276531486
20
20.911220801970959
30
0
10
-12.903829427474516
20
20.760385107981033
30
0
10
-12.924050349267183
20
20.460248179410314
30
0
10
-13.070059417749018
20
20.197297438161893
30
0
10
-13.142690714031486
20
20.066494239470959
30
0
0
SPLINE
5
181
100
AcDbEntity
8
0
100
AcDbSpline
70
1064
71
3
72
9
73
5
74
0
42
0.000000001
43
0.0000000001
44
0.0000000001
40
0
40
0
40
0
40
0
40
0.046065816658935409
40
0.096375522848729259
40
0.096375522848729259
40
0.096375522848729259
40
0.096375522848729259
10
-13.142690714031486
20
20.066494239470959
30
0
10
-13.238985911635389
20
19.94456632641031
30
0
10
-13.440447661149328
20
19.689477689686981
30
0
10
-13.729240497169531
20
19.539379411993462
30
0
10
-13.879995401531486
20
19.461025489470959
30
0
0
SPLINE
5
182
100
AcDbEntity
8
0
100
AcDbSpline
70
1064
71
3
72
9
73
5
74
0
42
0.000000001
43
0.0000000001
44
0.0000000001
40
0
40
0
40
0
40
0
40
0.060727281366684711
40
0.11772225538393205
40
0.11772225538393205
40
0.11772225538393205
40
0.11772225538393205
10
-13.879995401531486
20
19.461025489470959
30
0
10
-13.682210815282643
20
19.401645427208368
30
0
10
-13.298797511584757
20
19.286534809754883
30
0
10
-13.025825892482539
20
18.994502258187005
30
0
10
-12.893667276531486
20
18.853115333220959
30
0
0
SPLINE
5
183
100
AcDbEntity
8
0
100
AcDbSpline
70
1064
71
3
72
9
73
5
74
0
42
0.000000001
43
0.0000000001
44
0.0000000001
40
0
40
0
40
0
40
0
40
0.058250214901720089
40
0.1223928211440331
40
0.1223928211440331
40
0.1223928211440331
40
0.1223928211440331
10
-12.893667276531486
20
18.853115333220959
30
0
10
-12.791192998652136
20
18.684547746618449
30
0
10
-12.575878497486565
20
18.330360856277665
30
0
10
-12.553718304936856
20
17.91566205630274
30
0
10
-12.542104776531486
20
17.698330176970959
30
0
0
SPLINE
5
184
100
AcDbEntity
8
0
100
AcDbSpline
70
1064
71
3
72
9
73
5
74
0
42
0.000000001
43
0.0000000001
44
0.0000000001
40
0
40
0
40
0
40
0
40
0.088278887725552382
40
0.17693389663059061
40
0.17693389663059061
40
0.17693389663059061
40
0.17693389663059061
10
-12.542104776531486
20
17.698330176970959
30
0
10
-12.570829272923735
20
17.397502170201996
30
0
10
-12.628400649346521
20
16.794564448345774
30
0
10
-13.026317274087981
20
16.337828260643974
30
0
10
-13.225698526531486
20
16.108974708220959
30
0
0
SPLINE
5
185
100
AcDbEntity
8
0
100
AcDbSpline
70
1064
71
3
72
9
73
5
74
0
42
0.000000001
43
0.0000000001
44
0.0000000001
40
0
40
0
40
0
40
0
40
0.091541035222558478
40
0.18838105751702899
40
0.18838105751702899
40
0.18838105751702899
40
0.18838105751702899
10
-13.225698526531486
20
16.108974708220959
30
0
10
-13.473272348084544
20
15.91889200202707
30
0
10
-13.982751164926725
20
15.527723373428476
30
0
10
-14.624377039410488
20
15.481091191021829
30
0
10
-14.954214151531486
20
15.457119239470959
30
0
0
SPLINE
5
186
100
AcDbEntity
8
0
100
AcDbSpline
70
1064
71
3
72
9
73
5
74
0
42
0.000000001
43
0.0000000001
44
0.0000000001
40
0
40
0
40
0
40
0
40
0.08737772589566771
40
0.16928547292725415
40
0.16928547292725415
40
0.16928547292725415
40
0.16928547292725415
10
-14.954214151531486
20
15.457119239470959
30
0
10
-15.251410388029477
20
15.477340581448622
30
0
10
-15.827197923491722
20
15.51651737856508
30
0
10
-16.293525698523073
20
15.854912334540824
30
0
10
-16.519155557781488
20
16.018642676970959
30
0
0
SPLINE
5
187
100
AcDbEntity
8
0
100
AcDbSpline
70
1064
71
3
72
9
73
5
74
0
42
0.000000001
43
0.0000000001
44
0.0000000001
40
0
40
0
40
0
40
0
40
0.080897189710453399
40
0.16492540011065582
40
0.16492540011065582
40
0.16492540011065582
40
0.16492540011065582
10
-16.519155557781488
20
16.018642676970959
30
0
10
-16.704649228475617
20
16.222383505828741
30
0
10
-17.082815861540631
20
16.637750687785424
30
0
10
-17.180059763675644
20
17.191559508953681
30
0
10
-17.229604776531488
20
17.473720801970959
30
0
0
LINE
5
188
100
AcDbEntity
8
0
100
AcDbLine
10
-11.428823526531486
20
15.584072364470959
30
0
11
-11.428823526531486
21
20.769619239470959
31
0
0
LINE
5
189
100
AcDbEntity
8
0
100
AcDbLine
10
-11.428823526531486
20
20.769619239470959
30
0
11
-10.642690714031486
21
20.769619239470959
31
0
0
LINE
5
190
100
AcDbEntity
8
0
100
AcDbLine
10
-10.642690714031486
20
20.769619239470959
30
0
11
-10.642690714031486
21
20.042080176970959
31
0
0
SPLINE
5
191
100
AcDbEntity
8
0
100
AcDbSpline
70
1064
71
3
72
9
73
5
74
0
42
0.000000001
43
0.0000000001
44
0.0000000001
40
0
40
0
40
0
40
0
40
0.044606845670434596
40
0.089957445384510545
40
0.089957445384510545
40
0.089957445384510545
40
0.089957445384510545
10
-10.642690714031486
20
20.042080176970959
30
0
10
-10.554046430689477
20
20.163141576678932
30
0
10
-10.375279849965448
20
20.407282898234442
30
0
10
-10.12131097594326
20
20.571889416270956
30
0
10
-9.9932766515314864
20
20.654873145720959
30
0
0
SPLINE
5
192
100
AcDbEntity
8
0
100
AcDbSpline
70
1064
71
3
72
9
73
5
74
0
42
0.000000001
43
0.0000000001
44
0.0000000001
40
0
40
0
40
0
40
0
40
0.046695883586749053
40
0.09598830050939057
40
0.09598830050939057
40
0.09598830050939057
40
0.09598830050939057
10
-9.9932766515314864
20
20.654873145720959
30
0
10
-9.8512889341394114
20
20.722506673648663
30
0
10
-9.5594182457873362
20
20.861534504467507
30
0
10
-9.2363359888479373
20
20.878232101581112
30
0
10
-9.0704250890314864
20
20.886806739470959
30
0
0
SPLINE
5
193
100
AcDbEntity
8
0
100
AcDbSpline
70
1064
71
3
72
9
73
5
74
0
42
0.000000001
43
0.0000000001
44
0.0000000001
40
0
40
0
40
0
40
0
40
0.052769296174440337
40
0.098490983894973932
40
0.098490983894973932
40
0.098490983894973932
40
0.098490983894973932
10
-9.0704250890314864
20
20.886806739470959
30
0
10
-8.8921840439756217
20
20.880020916183064
30
0
10
-8.5595069538740525
20
20.867355550892736
30
0
10
-8.2631679663751818
20
20.717237184634275
30
0
10
-8.1256008702814864
20
20.647548926970959
30
0
0
SPLINE
5
194
100
AcDbEntity
8
0
100
AcDbSpline
70
1064
71
3
72
9
73
5
74
0
42
0.000000001
43
0.0000000001
44
0.0000000001
40
0
40
0
40
0
40
0
40
0.042555337460062494
40
0.085948071355336733
40
0.085948071355336733
40
0.085948071355336733
40
0.085948071355336733
10
-8.1256008702814864
20
20.647548926970959
30
0
10
-8.0115309531718477
20
20.559175981214565
30
0
10
-7.7811464712149707
20
20.380691102440416
30
0
10
-7.6644819392509262
20
20.113500527585664
30
0
10
-7.6055813390314864
20
19.978603614470959
30
0
0
SPLINE
5
195
100
AcDbEntity
8
0
100
AcDbSpline
70
1064
71
3
72
9
73
5
74
0
42
0.000000001
43
0.0000000001
44
0.0000000001
40
0
40
0
40
0
40
0
40
0.098246810531291723
40
0.19044182323910896
40
0.19044182323910896
40
0.19044182323910896
40
0.19044182323910896
10
-7.6055813390314864
20
19.978603614470959
30
0
10
-7.390575491357656
20
20.243417257377967
30
0
10
-6.9738077060560366
20
20.756732577245145
30
0
10
-6.3203601135850178
20
20.84437706465809
30
0
10
-6.0040188390314864
20
20.886806739470959
30
0
0
SPLINE
5
196
100
AcDbEntity
8
0
100
AcDbSpline
70
1064
71
3
72
9
73
5
74
0
42
0.000000001
43
0.0000000001
44
0.0000000001
40
0
40
0
40
0
40
0
40
0.06906820372939422
40
0.12880478634161741
40
0.12880478634161741
40
0.12880478634161741
40
0.12880478634161741
10
-6.0040188390314864
20
20.886806739470959
30
0
10
-5.7676716466507338
20
20.874768065183424
30
0
10
-5.3269095017958223
20
20.852317229839304
30
0
10
-4.9788958286797698
20
20.583999840492183
30
0
10
-4.8174954015314864
20
20.459560645720959
30
0
0
SPLINE
5
197
100
AcDbEntity
8
0
100
AcDbSpline
70
1064
71
3
72
9
73
5
74
0
42
0.000000001
43
0.0000000001
44
0.0000000001
40
0
40
0
40
0
40
0
40
0.062554961119008476
40
0.14057949846177764
40
0.14057949846177764
40
0.14057949846177764
40
0.14057949846177764
10
-4.8174954015314864
20
20.459560645720959
30
0
10
-4.6968196369167581
20
20.284432704898169
30
0
10
-4.4256255035888508
20
19.890868427227616
30
0
10
-4.4107259180378993
20
19.410343807349481
30
0
10
-4.4024563390314864
20
19.143642676970959
30
0
0
LINE
5
198
100
AcDbEntity
8
0
100
AcDbLine
10
-4.4024563390314864
20
19.143642676970959
30
0
11
-4.4024563390314864
21
15.584072364470959
31
0
0
LINE
5
199
100
AcDbEntity
8
0
100
AcDbLine
10
-4.4024563390314864
20
15.584072364470959
30
0
11
-5.2764797765314864
21
15.584072364470959
31
0
0
LINE
5
200
100
AcDbEntity
8
0
100
AcDbLine
10
-5.2764797765314864
20
15.584072364470959
30
0
11
-5.2764797765314864
21
18.850673926970959
31
0
0
SPLINE
5
201
100
AcDbEntity
8
0
100
AcDbSpline
70
1064
71
3
72
9
73
5
74
0
42
0.000000001
43
0.0000000001
44
0.0000000001
40
0
40
0
40
0
40
0
40
0.045399408196486628
40
0.076642374056737184
40
0.076642374056737184
40
0.076642374056737184
40
0.076642374056737184
10
-5.2764797765314864
20
18.850673926970959
30
0
10
-5.2765157047621125
20
19.002741091535018
30
0
10
-5.2765763580833847
20
19.259457841185686
30
0
10
-5.3372113688448009
20
19.508450415631302
30
0
10
-5.3619289952814864
20
19.609951270720959
30
0
0
SPLINE
5
202
100
AcDbEntity
8
0
100
AcDbSpline
70
1064
71
3
72
9
73
5
74
0
42
0.000000001
43
0.0000000001
44
0.0000000001
40
0
40
0
40
0
40
0
40
0.024142316987330652
40
0.049239717933335744
40
0.049239717933335744
40
0.049239717933335744
40
0.049239717933335744
10
-5.3619289952814864
20
19.609951270720959
30
0
10
-5.3969131661750129
20
19.683936200683078
30
0
10
-5.4682655019028914
20
19.834832947029504
30
0
10
-5.6032077522648471
20
19.933298633250232
30
0
10
-5.6719875890314864
20
19.983486426970959
30
0
0
SPLINE
5
203
100
AcDbEntity
8
0
100
AcDbSpline
70
1064
71
3
72
9
73
5
74
0
42
0.000000001
43
0.0000000001
44
0.0000000001
40
0
40
0
40
0
40
0
40
0.026623924144087759
40
0.055164631505007916
40
0.055164631505007916
40
0.055164631505007916
40
0.055164631505007916
10
-5.6719875890314864
20
19.983486426970959
30
0
10
-5.751755608271047
20
20.024773114494423
30
0
10
-5.9170345267137243
20
20.11031891499205
30
0
10
-6.1030776135410854
20
20.120052231436823
30
0
10
-6.1993313390314864
20
20.125087989470959
30
0
0
SPLINE
5
204
100
AcDbEntity
8
0
100
AcDbSpline
70
1064
71
3
72
9
73
5
74
0
42
0.000000001
43
0.0000000001
44
0.0000000001
40
0
40
0
40
0
40
0
40
0.050868363120921668
40
0.099926088989394674
40
0.099926088989394674
40
0.099926088989394674
40
0.099926088989394674
10
-6.1993313390314864
20
20.125087989470959
30
0
10
-6.3727552445625024
20
20.111059905163099
30
0
10
-6.7134301071639584
20
20.083503060104697
30
0
10
-6.9777628944068049
20
19.867408129057583
30
0
10
-7.1075344640314864
20
19.761318458220959
30
0
0
SPLINE
5
205
100
AcDbEntity
8
0
100
AcDbSpline
70
1064
71
3
72
9
73
5
74
0
42
0.000000001
43
0.0000000001
44
0.0000000001
40
0
40
0
40
0
40
0
40
0.054515055845071596
40
0.1242553808847485
40
0.1242553808847485
40
0.1242553808847485
40
0.1242553808847485
10
-7.1075344640314864
20
19.761318458220959
30
0
10
-7.2125190970243853
20
19.608582675447529
30
0
10
-7.4518090575199025
20
19.260454207649978
30
0
10
-7.462731943896717
20
18.835359114618768
30
0
10
-7.4688625890314864
20
18.596767676970959
30
0
0
LINE
5
206
100
AcDbEntity
8
0
100
AcDbLine
10
-7.4688625890314873
20
18.596767676970959
30
0
11
-7.4688625890314864
21
15.584072364470959
31
0
0
LINE
5
207
100
AcDbEntity
8
0
100
AcDbLine
10
-7.4688625890314864
20
15.584072364470959
30
0
11
-8.3477688390314864
21
15.584072364470959
31
0
0
LINE
5
208
100
AcDbEntity
8
0
100
AcDbLine
10
-8.3477688390314864
20
15.584072364470959
30
0
11
-8.3477688390314864
21
18.953212989470959
31
0
0
SPLINE
5
209
100
AcDbEntity
8
0
100
AcDbSpline
70
1064
71
3
72
9
73
5
74
0
42
0.000000001
43
0.0000000001
44
0.0000000001
40
0
40
0
40
0
40
0
40
0.051550106524293579
40
0.091559384699335555
40
0.091559384699335555
40
0.091559384699335555
40
0.091559384699335555
10
-8.3477688390314864
20
18.953212989470959
30
0
10
-8.3512308090937442
20
19.127944627504007
30
0
10
-8.3573796974301491
20
19.438289694555873
30
0
10
-8.5002024400540961
20
19.712357926466645
30
0
10
-8.5626125890314864
20
19.832119239470959
30
0
0
SPLINE
5
210
100
AcDbEntity
8
0
100
AcDbSpline
70
1064
71
3
72
9
73
5
74
0
42
0.000000001
43
0.0000000001
44
0.0000000001
40
0
40
0
40
0
40
0
40
0.035844633109829986
40
0.078470775221602285
40
0.078470775221602285
40
0.078470775221602285
40
0.078470775221602285
10
-8.5626125890314864
20
19.832119239470959
30
0
10
-8.6516911004757979
20
19.917400624675164
30
0
10
-8.8467010431694106
20
20.104097929915838
30
0
10
-9.1182366307307063
20
20.1176994837911
30
0
10
-9.2657375890314864
20
20.125087989470959
30
0
0
SPLINE
5
211
100
AcDbEntity
8
0
100
AcDbSpline
70
1064
71
3
72
9
73
5
74
0
42
0.000000001
43
0.0000000001
44
0.0000000001
40
0
40
0
40
0
40
0
40
0.036037887428389648
40
0.072049715818390342
40
0.072049715818390342
40
0.072049715818390342
40
0.072049715818390342
10
-9.2657375890314864
20
20.125087989470959
30
0
10
-9.3870768256196442
20
20.116961748508714
30
0
10
-9.6296675582526028
20
20.100715142678528
30
0
10
-9.8444302414908318
20
19.986741633175939
30
0
10
-9.9517727452814864
20
19.929775489470959
30
0
0
SPLINE
5
212
100
AcDbEntity
8
0
100
AcDbSpline
70
1064
71
3
72
9
73
5
74
0
42
0.000000001
43
0.0000000001
44
0.0000000001
40
0
40
0
40
0
40
0
40
0.036276711208776277
40
0.074176201393326979
40
0.074176201393326979
40
0.074176201393326979
40
0.074176201393326979
10
-9.9517727452814864
20
19.929775489470959
30
0
10
-10.05001815875965
20
19.855824405625512
30
0
10
-10.250903832606621
20
19.704614157899204
30
0
10
-10.355085348275965
20
19.475532901154885
30
0
10
-10.408315714031486
20
19.358486426970959
30
0
0
SPLINE
5
213
100
AcDbEntity
8
0
100
AcDbSpline
70
1064
71
3
72
9
73
5
74
0
42
0.000000001
43
0.0000000001
44
0.0000000001
40
0
40
0
40
0
40
0
40
0.047111075704314366
40
0.10971125043701002
40
0.10971125043701002
40
0.10971125043701002
40
0.10971125043701002
10
-10.408315714031486
20
19.358486426970959
30
0
10
-10.449410067665681
20
19.206305545334462
30
0
10
-10.545109706353731
20
18.851910011644325
30
0
10
-10.548170702078451
20
18.484272466973927
30
0
10
-10.549917276531486
20
18.274502051970959
30
0
0
LINE
5
214
100
AcDbEntity
8
0
100
AcDbLine
10
-10.549917276531488
20
18.274502051970959
30
0
11
-10.549917276531486
21
15.584072364470959
31
0
0
LINE
5
215
100
AcDbEntity
8
0
100
AcDbLine
10
-10.549917276531486
20
15.584072364470959
30
0
11
-11.428823526531486
21
15.584072364470959
31
0
0
LINE
5
216
100
AcDbEntity
8
0
100
AcDbLine
10
-3.0987454015314864
20
15.584072364470959
30
0
11
-3.0987454015314864
21
20.769619239470959
31
0
0
LINE
5
217
100
AcDbEntity
8
0
100
AcDbLine
10
-3.0987454015314864
20
20.769619239470959
30
0
11
-2.3126125890314864
21
20.769619239470959
31
0
0
LINE
5
218
100
AcDbEntity
8
0
100
AcDbLine
10
-2.3126125890314864
20
20.769619239470959
30
0
11
-2.3126125890314864
21
20.042080176970959
31
0
0
SPLINE
5
219
100
AcDbEntity
8
0
100
AcDbSpline
70
1064
71
3
72
9
73
5
74
0
42
0.000000001
43
0.0000000001
44
0.0000000001
40
0
40
0
40
0
40
0
40
0.044606845670434596
40
0.089957445384510545
40
0.089957445384510545
40
0.089957445384510545
40
0.089957445384510545
10
-2.3126125890314864
20
20.042080176970959
30
0
10
-2.2239683056894766
20
20.163141576678932
30
0
10
-2.0452017249654486
20
20.407282898234442
30
0
10
-1.7912328509432585
20
20.571889416270956
30
0
10
-1.6631985265314864
20
20.654873145720959
30
0
0
SPLINE
5
220
100
AcDbEntity
8
0
100
AcDbSpline
70
1064
71
3
72
9
73
5
74
0
42
0.000000001
43
0.0000000001
44
0.0000000001
40
0
40
0
40
0
40
0
40
0.046695883586749053
40
0.09598830050939057
40
0.09598830050939057
40
0.09598830050939057
40
0.09598830050939057
10
-1.6631985265314864
20
20.654873145720959
30
0
10
-1.5212108091394105
20
20.722506673648663
30
0
10
-1.2293401207873345
20
20.861534504467507
30
0
10
-0.90625786384793461
20
20.878232101581112
30
0
10
-0.74034696403148637
20
20.886806739470959
30
0
0
SPLINE
5
221
100
AcDbEntity
8
0
100
AcDbSpline
70
1064
71
3
72
9
73
5
74
0
42
0.000000001
43
0.0000000001
44
0.0000000001
40
0
40
0
40
0
40
0
40
0.052769296174440337
40
0.098490983894973932
40
0.098490983894973932
40
0.098490983894973932
40
0.098490983894973932
10
-0.74034696403148637
20
20.886806739470959
30
0
10
-0.56210591897562168
20
20.880020916183064
30
0
10
-0.22942882887405203
20
20.867355550892736
30
0
10
0.066910158624822191
20
20.717237184634275
30
0
10
0.20447725471851363
20
20.647548926970959
30
0
0
SPLINE
5
222
100
AcDbEntity
8
0
100
AcDbSpline
70
1064
71
3
72
9
73
5
74
0
42
0.000000001
43
0.0000000001
44
0.0000000001
40
0
40
0
40
0
40
0
40
0.042555337460062494
40
0.085948071355336733
40
0.085948071355336733
40
0.085948071355336733
40
0.085948071355336733
10
0.20447725471851363
20
20.647548926970959
30
0
10
0.31854717182814962
20
20.559175981214565
30
0
10
0.54893165378502751
20
20.380691102440416
30
0
10
0.66559618574907331
20
20.113500527585664
30
0
10
0.72449678596851363
20
19.978603614470959
30
0
0
SPLINE
5
223
100
AcDbEntity
8
0
100
AcDbSpline
70
1064
71
3
72
9
73
5
74
0
42
0.000000001
43
0.0000000001
44
0.0000000001
40
0
40
0
40
0
40
0
40
0.098246810531291723
40
0.19044182323910896
40
0.19044182323910896
40
0.19044182323910896
40
0.19044182323910896
10
0.72449678596851363
20
19.978603614470959
30
0
10
0.93950263364234621
20
20.243417257377967
30
0
10
1.3562704189439678
20
20.756732577245145
30
0
10
2.0097180114149782
20
20.84437706465809
30
0
10
2.3260592859685136
20
20.886806739470959
30
0
0
SPLINE
5
224
100
AcDbEntity
8
0
100
AcDbSpline
70
1064
71
3
72
9
73
5
74
0
42
0.000000001
43
0.0000000001
44
0.0000000001
40
0
40
0
40
0
40
0
40
0.06906820372939422
40
0.12880478634161741
40
0.12880478634161741
40
0.12880478634161741
40
0.12880478634161741
10
2.3260592859685136
20
20.886806739470959
30
0
10
2.5624064783492662
20
20.874768065183424
30
0
10
3.0031686232041732
20
20.852317229839304
30
0
10
3.3511822963202276
20
20.583999840492183
30
0
10
3.5125827234685136
20
20.459560645720959
30
0
0
SPLINE
5
225
100
AcDbEntity
8
0
100
AcDbSpline
70
1064
71
3
72
9
73
5
74
0
42
0.000000001
43
0.0000000001
44
0.0000000001
40
0
40
0
40
0
40
0
40
0.062554961119008476
40
0.14057949846177764
40
0.14057949846177764
40
0.14057949846177764
40
0.14057949846177764
10
3.5125827234685136
20
20.459560645720959
30
0
10
3.6332584880832464
20
20.284432704898169
30
0
10
3.9044526214111519
20
19.890868427227616
30
0
10
3.919352206962099
20
19.410343807349481
30
0
10
3.9276217859685136
20
19.143642676970959
30
0
0
LINE
5
226
100
AcDbEntity
8
0
100
AcDbLine
10
3.9276217859685136
20
19.143642676970959
30
0
11
3.9276217859685136
21
15.584072364470959
31
0
0
LINE
5
227
100
AcDbEntity
8
0
100
AcDbLine
10
3.9276217859685136
20
15.584072364470959
30
0
11
3.0535983484685136
21
15.584072364470959
31
0
0
LINE
5
228
100
AcDbEntity
8
0
100
AcDbLine
10
3.0535983484685136
20
15.584072364470959
30
0
11
3.0535983484685136
21
18.850673926970959
31
0
0
SPLINE
5
229
100
AcDbEntity
8
0
100
AcDbSpline
70
1064
71
3
72
9
73
5
74
0
42
0.000000001
43
0.0000000001
44
0.0000000001
40
0
40
0
40
0
40
0
40
0.045399408196486628
40
0.076642374056737184
40
0.076642374056737184
40
0.076642374056737184
40
0.076642374056737184
10
3.0535983484685136
20
18.850673926970959
30
0
10
3.053562420237883
20
19.002741091535018
30
0
10
3.0535017669166153
20
19.259457841185686
30
0
10
2.9928667561551947
20
19.508450415631302
30
0
10
2.9681491297185136
20
19.609951270720959
30
0
0
SPLINE
5
230
100
AcDbEntity
8
0
100
AcDbSpline
70
1064
71
3
72
9
73
5
74
0
42
0.000000001
43
0.0000000001
44
0.0000000001
40
0
40
0
40
0
40
0
40
0.024142316987330652
40
0.049239717933335744
40
0.049239717933335744
40
0.049239717933335744
40
0.049239717933335744
10
2.9681491297185136
20
19.609951270720959
30
0
10
2.9331649588249853
20
19.683936200683078
30
0
10
2.8618126230970997
20
19.834832947029504
30
0
10
2.7268703727351529
20
19.933298633250232
30
0
10
2.6580905359685136
20
19.983486426970959
30
0
0
SPLINE
5
231
100
AcDbEntity
8
0
100
AcDbSpline
70
1064
71
3
72
9
73
5
74
0
42
0.000000001
43
0.0000000001
44
0.0000000001
40
0
40
0
40
0
40
0
40
0.026623924144087759
40
0.055164631505007916
40
0.055164631505007916
40
0.055164631505007916
40
0.055164631505007916
10
2.6580905359685136
20
19.983486426970959
30
0
10
2.5783225167289503
20
20.024773114494423
30
0
10
2.4130435982862775
20
20.11031891499205
30
0
10
2.227000511458912
20
20.120052231436823
30
0
10
2.1307467859685136
20
20.125087989470959
30
0
0
SPLINE
5
232
100
AcDbEntity
8
0
100
AcDbSpline
70
1064
71
3
72
9
73
5
74
0
42
0.000000001
43
0.0000000001
44
0.0000000001
40
0
40
0
40
0
40
0
40
0.050868363120921668
40
0.099926088989394674
40
0.099926088989394674
40
0.099926088989394674
40
0.099926088989394674
10
2.1307467859685136
20
20.125087989470959
30
0
10
1.9573228804374954
20
20.111059905163099
30
0
10
1.6166480178360398
20
20.083503060104697
30
0
10
1.3523152305931907
20
19.867408129057583
30
0
10
1.2225436609685136
20
19.761318458220959
30
0
0
SPLINE
5
233
100
AcDbEntity
8
0
100
AcDbSpline
70
1064
71
3
72
9
73
5
74
0
42
0.000000001
43
0.0000000001
44
0.0000000001
40
0
40
0
40
0
40
0
40
0.054515055845071596
40
0.1242553808847485
40
0.1242553808847485
40
0.1242553808847485
40
0.1242553808847485
10
1.2225436609685136
20
19.761318458220959
30
0
10
1.1175590279756165
20
19.608582675447529
30
0
10
0.87826906748010192
20
19.260454207649978
30
0
10
0.86734618110328565
20
18.835359114618768
30
0
10
0.86121553596851363
20
18.596767676970959
30
0
0
LINE
5
234
100
AcDbEntity
8
0
100
AcDbLine
10
0.86121553596851363
20
18.596767676970959
30
0
11
0.86121553596851363
21
15.584072364470959
31
0
0
LINE
5
235
100
AcDbEntity
8
0
100
AcDbLine
10
0.86121553596851363
20
15.584072364470959
30
0
11
-0.017690714031486365
21
15.584072364470959
31
0
0
LINE
5
236
100
AcDbEntity
8
0
100
AcDbLine
10
-0.017690714031486365
20
15.584072364470959
30
0
11
-0.017690714031486365
21
18.953212989470959
31
0
0
SPLINE
5
237
100
AcDbEntity
8
0
100
AcDbSpline
70
1064
71
3
72
9
73
5
74
0
42
0.000000001
43
0.0000000001
44
0.0000000001
40
0
40
0
40
0
40
0
40
0.051550106524293579
40
0.091559384699335555
40
0.091559384699335555
40
0.091559384699335555
40
0.091559384699335555
10
-0.017690714031486365
20
18.953212989470959
30
0
10
-0.021152684093743712
20
19.127944627504007
30
0
10
-0.027301572430147303
20
19.438289694555873
30
0
10
-0.17012431505409209
20
19.712357926466645
30
0
10
-0.23253446403148637
20
19.832119239470959
30
0
0
SPLINE
5
238
100
AcDbEntity
8
0
100
AcDbSpline
70
1064
71
3
72
9
73
5
74
0
42
0.000000001
43
0.0000000001
44
0.0000000001
40
0
40
0
40
0
40
0
40
0.035844633109829986
40
0.078470775221602285
40
0.078470775221602285
40
0.078470775221602285
40
0.078470775221602285
10
-0.23253446403148637
20
19.832119239470959
30
0
10
-0.32161297547580014
20
19.917400624675164
30
0
10
-0.51662291816941597
20
20.104097929915838
30
0
10
-0.78815850573070501
20
20.1176994837911
30
0
10
-0.93565946403148637
20
20.125087989470959
30
0
0
SPLINE
5
239
100
AcDbEntity
8
0
100
AcDbSpline
70
1064
71
3
72
9
73
5
74
0
42
0.000000001
43
0.0000000001
44
0.0000000001
40
0
40
0
40
0
40
0
40
0.036037887428389648
40
0.072049715818390342
40
0.072049715818390342
40
0.072049715818390342
40
0.072049715818390342
10
-0.93565946403148637
20
20.125087989470959
30
0
10
-1.0569987006196424
20
20.116961748508714
30
0
10
-1.2995894332525992
20
20.100715142678528
30
0
10
-1.5143521164908313
20
19.986741633175939
30
0
10
-1.6216946202814864
20
19.929775489470959
30
0
0
SPLINE
5
240
100
AcDbEntity
8
0
100
AcDbSpline
70
1064
71
3
72
9
73
5
74
0
42
0.000000001
43
0.0000000001
44
0.0000000001
40
0
40
0
40
0
40
0
40
0.036276711208776277
40
0.074176201393326979
40
0.074176201393326979
40
0.074176201393326979
40
0.074176201393326979
10
-1.6216946202814864
20
19.929775489470959
30
0
10
-1.7199400337596504
20
19.855824405625512
30
0
10
-1.9208257076066237
20
19.704614157899204
30
0
10
-2.0250072232759675
20
19.475532901154885
30
0
10
-2.0782375890314864
20
19.358486426970959
30
0
0
SPLINE
5
241
100
AcDbEntity
8
0
100
AcDbSpline
70
1064
71
3
72
9
73
5
74
0
42
0.000000001
43
0.0000000001
44
0.0000000001
40
0
40
0
40
0
40
0
40
0.047111075704314366
40
0.10971125043701002
40
0.10971125043701002
40
0.10971125043701002
40
0.10971125043701002
10
-2.0782375890314864
20
19.358486426970959
30
0
10
-2.1193319426656831
20
19.206305545334462
30
0
10
-2.2150315813537325
20
18.851910011644325
30
0
10
-2.2180925770784521
20
18.484272466973927
30
0
10
-2.2198391515314864
20
18.274502051970959
30
0
0
LINE
5
242
100
AcDbEntity
8
0
100
AcDbLine
10
-2.2198391515314859
20
18.274502051970959
30
0
11
-2.2198391515314864
21
15.584072364470959
31
0
0
LINE
5
243
100
AcDbEntity
8
0
100
AcDbLine
10
-2.2198391515314864
20
15.584072364470959
30
0
11
-3.0987454015314864
21
15.584072364470959
31
0
0
LINE
5
244
100
AcDbEntity
8
0
100
AcDbLine
10
16.094545576999579
20
31.007942050419672
30
0
11
16.568178389499579
21
30.888313144169672
31
0
0
SPLINE
5
245
100
AcDbEntity
8
0
100
AcDbSpline
70
1064
71
3
72
9
73
5
74
0
42
0.000000001
43
0.0000000001
44
0.0000000001
40
0
40
0
40
0
40
0
40
0.055485908782522721
40
0.10532112320466955
40
0.10532112320466955
40
0.10532112320466955
40
0.10532112320466955
10
16.568178389499579
20
30.888313144169672
30
0
10
16.512410484419465
20
30.708480961317363
30
0
10
16.406554087170385
20
30.367130735612513
30
0
10
16.152501017995341
20
30.116847893223753
30
0
10
16.032289717624579
20
29.998420566044672
30
0
0
SPLINE
5
246
100
AcDbEntity
8
0
100
AcDbSpline
70
1064
71
3
72
9
73
5
74
0
42
0.000000001
43
0.0000000001
44
0.0000000001
40
0
40
0
40
0
40
0
40
0.048754541265048731
40
0.10092516001264834
40
0.10092516001264834
40
0.10092516001264834
40
0.10092516001264834
10
16.032289717624579
20
29.998420566044672
30
0
10
15.893167144659522
20
29.909083219301436
30
0
10
15.605174117270803
20
29.724148938694629
30
0
10
15.263080917615689
20
29.702971304916073
30
0
10
15.086244795749577
20
29.692024081669672
30
0
0
SPLINE
5
247
100
AcDbEntity
8
0
100
AcDbSpline
70
1064
71
3
72
9
73
5
74
0
42
0.000000001
43
0.0000000001
44
0.0000000001
40
0
40
0
40
0
40
0
40
0.052789323930035145
40
0.098038423537923386
40
0.098038423537923386
40
0.098038423537923386
40
0.098038423537923386
10
15.086244795749577
20
29.692024081669672
30
0
10
14.907913516970508
20
29.69844315652243
30
0
10
14.576723114491143
20
29.710364430224864
30
0
10
14.281391419318217
20
29.859012211968722
30
0
10
14.145082686374577
20
29.927619784794672
30
0
0
SPLINE
5
248
100
AcDbEntity
8
0
100
AcDbSpline
70
1064
71
3
72
9
73
5
74
0
42
0.000000001
43
0.0000000001
44
0.0000000001
40
0
40
0
40
0
40
0
40
0.043019405763492093
40
0.088768553351154647
40
0.088768553351154647
40
0.088768553351154647
40
0.088768553351154647
10
14.145082686374577
20
29.927619784794672
30
0
10
14.030556949737418
20
30.017120262943937
30
0
10
13.794238391116522
20
30.201800358555332
30
0
10
13.661655079405215
20
30.471167550191105
30
0
10
13.593324873874577
20
30.609992831669672
30
0
0
SPLINE
5
249
100
AcDbEntity
8
0
100
AcDbSpline
70
1064
71
3
72
9
73
5
74
0
42
0.000000001
43
0.0000000001
44
0.0000000001
40
0
40
0
40
0
40
0
40
0.048450430174813409
40
0.09829695892195095
40
0.09829695892195095
40
0.09829695892195095
40
0.09829695892195095
10
13.593324873874577
20
30.609992831669672
30
0
10
13.538142056182465
20
30.76284592025435
30
0
10
13.426186328559247
20
31.07295655736305
30
0
10
13.411542032844515
20
31.402402817331783
30
0
10
13.404115889499577
20
31.569465487919672
30
0
0
SPLINE
5
250
100
AcDbEntity
8
0
100
AcDbSpline
70
1064
71
3
72
9
73
5
74
0
42
0.000000001
43
0.0000000001
44
0.0000000001
40
0
40
0
40
0
40
0
40
0.05260941924571122
40
0.10056171218577376
40
0.10056171218577376
40
0.10056171218577376
40
0.10056171218577376
10
13.404115889499577
20
31.569465487919672
30
0
10
13.411247893230076
20
31.7463235239161
30
0
10
13.424880556672051
20
32.084383650194042
30
0
10
13.555468704610202
20
32.396145419644711
30
0
10
13.617738936374577
20
32.544807284794672
30
0
0
SPLINE
5
251
100
AcDbEntity
8
0
100
AcDbSpline
70
1064
71
3
72
9
73
5
74
0
42
0.000000001
43
0.0000000001
44
0.0000000001
40
0
40
0
40
0
40
0
40
0.044842193257495534
40
0.088740008300939088
40
0.088740008300939088
40
0.088740008300939088
40
0.088740008300939088
10
13.617738936374577
20
32.544807284794672
30
0
10
13.695761627277875
20
32.674825685291509
30
0
10
13.850163848388304
20
32.93212429406185
30
0
10
14.101378493278043
20
33.096043915592766
30
0
10
14.225649092624577
20
33.177131503544672
30
0
0
SPLINE
5
252
100
AcDbEntity
8
0
100
AcDbSpline
70
1064
71
3
72
9
73
5
74
0
42
0.000000001
43
0.0000000001
44
0.0000000001
40
0
40
0
40
0
40
0
40
0.04446998614980955
40
0.09016997532847415
40
0.09016997532847415
40
0.09016997532847415
40
0.09016997532847415
10
14.225649092624577
20
33.177131503544672
30
0
10
14.361433231371368
20
33.240146997106962
30
0
10
14.636757185814481
20
33.367920940653548
30
0
10
14.939919930220189
20
33.384694681478962
30
0
10
15.093569014499577
20
33.393195956669672
30
0
0
SPLINE
5
253
100
AcDbEntity
8
0
100
AcDbSpline
70
1064
71
3
72
9
73
5
74
0
42
0.000000001
43
0.0000000001
44
0.0000000001
40
0
40
0
40
0
40
0
40
0.049908846974507114
40
0.095656559360097593
40
0.095656559360097593
40
0.095656559360097593
40
0.095656559360097593
10
15.093569014499577
20
33.393195956669672
30
0
10
15.262559951489511
20
33.383920425476063
30
0
10
15.586452258674111
20
33.366142707616312
30
0
10
15.864102978169131
20
33.199469739147169
30
0
10
15.996889326999577
20
33.119758456669672
30
0
0
SPLINE
5
254
100
AcDbEntity
8
0
100
AcDbSpline
70
1064
71
3
72
9
73
5
74
0
42
0.000000001
43
0.0000000001
44
0.0000000001
40
0
40
0
40
0
40
0
40
0.04524850272235828
40
0.093569307769118149
40
0.093569307769118149
40
0.093569307769118149
40
0.093569307769118149
10
15.996889326999577
20
33.119758456669672
30
0
10
16.110421459827823
20
33.016796581573999
30
0
10
16.345194379132433
20
32.803881881646213
30
0
10
16.451991405880918
20
32.505041709320437
30
0
10
16.507143233249579
20
32.350715487919672
30
0
0
LINE
5
255
100
AcDbEntity
8
0
100
AcDbLine
10
16.507143233249579
20
32.350715487919672
30
0
11
16.040834639499579
21
32.240852206669672
31
0
0
SPLINE
5
256
100
AcDbEntity
8
0
100
AcDbSpline
70
1064
71
3
72
9
73
5
74
0
42
0.000000001
43
0.0000000001
44
0.0000000001
40
0
40
0
40
0
40
0
40
0.037041300524363462
40
0.06819943394455838
40
0.06819943394455838
40
0.06819943394455838
40
0.06819943394455838
10
16.040834639499579
20
32.240852206669672
30
0
10
15.998622829419988
20
32.359020101988499
30
0
10
15.920903594067827
20
32.576587613309087
30
0
10
15.755207667536272
20
32.736596799228664
30
0
10
15.679506514499577
20
32.809699862919672
30
0
0
SPLINE
5
257
100
AcDbEntity
8
0
100
AcDbSpline
70
1064
71
3
72
9
73
5
74
0
42
0.000000001
43
0.0000000001
44
0.0000000001
40
0
40
0
40
0
40
0
40
0.029888848087918331
40
0.063026666319487432
40
0.063026666319487432
40
0.063026666319487432
40
0.063026666319487432
10
15.679506514499577
20
32.809699862919672
30
0
10
15.592674667403505
20
32.86164393958407
30
0
10
15.4095721993281
20
32.971178505037074
30
0
10
15.196061752407775
20
32.982152612541633
30
0
10
15.083803389499577
20
32.987922519169672
30
0
0
SPLINE
5
258
100
AcDbEntity
8
0
100
AcDbSpline
70
1064
71
3
72
9
73
5
74
0
42
0.000000001
43
0.0000000001
44
0.0000000001
40
0
40
0
40
0
40
0
40
0.038193636010264716
40
0.072646846408341986
40
0.072646846408341986
40
0.072646846408341986
40
0.072646846408341986
10
15.083803389499577
20
32.987922519169672
30
0
10
14.95458417720921
20
32.981517933739575
30
0
10
14.708800605680633
20
32.969335984528875
30
0
10
14.495340759187377
20
32.847805287769241
30
0
10
14.394106123874577
20
32.790168612919672
30
0
0
SPLINE
5
259
100
AcDbEntity
8
0
100
AcDbSpline
70
1064
71
3
72
9
73
5
74
0
42
0.000000001
43
0.0000000001
44
0.0000000001
40
0
40
0
40
0
40
0
40
0.033060693985372896
40
0.066704438091973378
40
0.066704438091973378
40
0.066704438091973378
40
0.066704438091973378
10
14.394106123874577
20
32.790168612919672
30
0
10
14.308446312461101
20
32.718126969035033
30
0
10
14.135616014647979
20
32.572773172872353
30
0
10
14.048593438513283
20
32.364306947149942
30
0
10
14.004701826999577
20
32.259162753544672
30
0
0
SPLINE
5
260
100
AcDbEntity
8
0
100
AcDbSpline
70
1064
71
3
72
9
73
5
74
0
42
0.000000001
43
0.0000000001
44
0.0000000001
40
0
40
0
40
0
40
0
40
0.034876358293757792
40
0.06987076013970113
40
0.06987076013970113
40
0.06987076013970113
40
0.06987076013970113
10
14.004701826999577
20
32.259162753544672
30
0
10
13.971946319812593
20
32.147114756782202
30
0
10
13.906324440181725
20
31.922639522298621
30
0
10
13.89704479890783
20
31.688949373262094
30
0
10
13.892397139499577
20
31.571906894169672
30
0
0
SPLINE
5
261
100
AcDbEntity
8
0
100
AcDbSpline
70
1064
71
3
72
9
73
5
74
0
42
0.000000001
43
0.0000000001
44
0.0000000001
40
0
40
0
40
0
40
0
40
0.042884331920724175
40
0.081164738201597475
40
0.081164738201597475
40
0.081164738201597475
40
0.081164738201597475
10
13.892397139499577
20
31.571906894169672
30
0
10
13.896569801616769
20
31.428197817140745
30
0
10
13.904467162101984
20
31.156207813057009
30
0
10
13.986679354319991
20
30.897027254405671
30
0
10
14.025453780124577
20
30.774787753544672
30
0
0
SPLINE
5
262
100
AcDbEntity
8
0
100
AcDbSpline
70
1064
71
3
72
9
73
5
74
0
42
0.000000001
43
0.0000000001
44
0.0000000001
40
0
40
0
40
0
40
0
40
0.034267775240679352
40
0.066545073735033017
40
0.066545073735033017
40
0.066545073735033017
40
0.066545073735033017
10
14.025453780124577
20
30.774787753544672
30
0
10
14.074485731918777
20
30.669338817940922
30
0
10
14.169701567338533
20
30.464566049771772
30
0
10
14.351225175774207
20
30.330690232127473
30
0
10
14.439272139499577
20
30.265754550419672
30
0
0
SPLINE
5
263
100
AcDbEntity
8
0
100
AcDbSpline
70
1064
71
3
72
9
73
5
74
0
42
0.000000001
43
0.0000000001
44
0.0000000001
40
0
40
0
40
0
40
0
40
0.031849007761124905
40
0.063683976360081676
40
0.063683976360081676
40
0.063683976360081676
40
0.063683976360081676
10
14.439272139499577
20
30.265754550419672
30
0
10
14.534780133913763
20
30.216621250320799
30
0
10
14.7257540224597
20
30.118376308266164
30
0
10
14.940055285590617
20
30.104322749497317
30
0
10
15.047182295749577
20
30.097297519169672
30
0
0
SPLINE
5
264
100
AcDbEntity
8
0
100
AcDbSpline
70
1064
71
3
72
9
73
5
74
0
42
0.000000001
43
0.0000000001
44
0.0000000001
40
0
40
0
40
0
40
0
40
0.037188395641664901
40
0.072331503672521835
40
0.072331503672521835
40
0.072331503672521835
40
0.072331503672521835
10
15.047182295749577
20
30.097297519169672
30
0
10
15.173361582679565
20
30.105730942877234
30
0
10
15.418780547345719
20
30.122133968803745
30
0
10
15.622184317329936
20
30.259869355984364
30
0
10
15.721010420749577
20
30.326789706669672
30
0
0
SPLINE
5
265
100
AcDbEntity
8
0
100
AcDbSpline
70
1064
71
3
72
9
73
5
74
0
42
0.000000001
43
0.0000000001
44
0.0000000001
40
0
40
0
40
0
40
0
40
0.036708980640473093
40
0.078796250497469703
40
0.078796250497469703
40
0.078796250497469703
40
0.078796250497469703
10
15.721010420749577
20
30.326789706669672
30
0
10
15.806448307647475
20
30.417106315841842
30
0
10
15.989841717666573
20
30.610971959513957
30
0
10
16.058091479948999
20
30.869731421773892
30
0
10
16.094545576999579
20
31.007942050419672
30
0
0
LINE
5
266
100
AcDbEntity
8
0
100
AcDbLine
10
18.794740889499579
20
29.753059237919672
30
0
11
18.794740889499579
21
30.133918612919672
31
0
0
SPLINE
5
267
100
AcDbEntity
8
0
100
AcDbSpline
70
1064
71
3
72
9
73
5
74
0
42
0.000000001
43
0.0000000001
44
0.0000000001
40
0
40
0
40
0
40
0
40
0.048591996495540524
40
0.096440172358737641
40
0.096440172358737641
40
0.096440172358737641
40
0.096440172358737641
10
18.794740889499579
20
30.133918612919672
30
0
10
18.685453654022957
20
30.005746980198378
30
0
10
18.468552094381497
20
29.751365698452187
30
0
10
18.136655406291069
20
29.713334449369178
30
0
10
17.971986983249579
20
29.694465487919672
30
0
0
SPLINE
5
268
100
AcDbEntity
8
0
100
AcDbSpline
70
1064
71
3
72
9
73
5
74
0
42
0.000000001
43
0.0000000001
44
0.0000000001
40
0
40
0
40
0
40
0
40
0.022294819247209673
40
0.043981311133685863
40
0.043981311133685863
40
0.043981311133685863
40
0.043981311133685863
10
17.971986983249579
20
29.694465487919672
30
0
10
17.897233199227124
20
29.697920724926441
30
0
10
17.749765332497351
20
29.704736920749795
30
0
10
17.611631703469847
20
29.7567227293769
30
0
10
17.543520186374579
20
29.782356112919672
30
0
0
SPLINE
5
269
100
AcDbEntity
8
0
100
AcDbSpline
70
1064
71
3
72
9
73
5
74
0
42
0.000000001
43
0.0000000001
44
0.0000000001
40
0
40
0
40
0
40
0
40
0.019970927901740172
40
0.037212711369230864
40
0.037212711369230864
40
0.037212711369230864
40
0.037212711369230864
10
17.543520186374579
20
29.782356112919672
30
0
10
17.482882703289587
20
29.811672943950466
30
0
10
17.369894204843213
20
29.866300289098234
30
0
10
17.286670233034581
20
29.959924450694992
30
0
10
17.248110030124579
20
30.003303378544672
30
0
0
SPLINE
5
270
100
AcDbEntity
8
0
100
AcDbSpline
70
1064
71
3
72
9
73
5
74
0
42
0.000000001
43
0.0000000001
44
0.0000000001
40
0
40
0
40
0
40
0
40
0.016925181991212873
40
0.035501189431216752
40
0.035501189431216752
40
0.035501189431216752
40
0.035501189431216752
10
17.248110030124579
20
30.003303378544672
30
0
10
17.218089436108706
20
30.051520091160313
30
0
10
17.155120140088826
20
30.152656412719931
30
0
10
17.127213920542797
20
30.268576102408716
30
0
10
17.112611983249579
20
30.329231112919672
30
0
0
SPLINE
5
271
100
AcDbEntity
8
0
100
AcDbSpline
70
1064
71
3
72
9
73
5
74
0
42
0.000000001
43
0.0000000001
44
0.0000000001
40
0
40
0
40
0
40
0
40
0.016844486800800779
40
0.041145755174358464
40
0.041145755174358464
40
0.041145755174358464
40
0.041145755174358464
10
17.112611983249579
20
30.329231112919672
30
0
10
17.104841363978998
20
30.384898482911687
30
0
10
17.085860198103102
20
30.5208762662647
30
0
10
17.085795013470783
20
30.658251560028265
30
0
10
17.085756514499579
20
30.739387362919672
30
0
0
LINE
5
272
100
AcDbEntity
8
0
100
AcDbLine
10
17.085756514499579
20
30.739387362919675
30
0
11
17.085756514499579
21
32.345832675419672
31
0
0
LINE
5
273
100
AcDbEntity
8
0
100
AcDbLine
10
17.085756514499579
20
32.345832675419672
30
0
11
17.525209639499579
21
32.345832675419672
31
0
0
LINE
5
274
100
AcDbEntity
8
0
100
AcDbLine
10
17.525209639499579
20
32.345832675419672
30
0
11
17.525209639499579
21
30.907844394169672
31
0
0
SPLINE
5
275
100
AcDbEntity
8
0
100
AcDbSpline
70
1064
71
3
72
9
73
5
74
0
42
0.000000001
43
0.0000000001
44
0.0000000001
40
0
40
0
40
0
40
0
40
0.02881641605020744
40
0.046509559345016591
40
0.046509559345016591
40
0.046509559345016591
40
0.046509559345016591
10
17.525209639499579
20
30.907844394169672
30
0
10
17.524753422058538
20
30.811630384974148
30
0
10
17.524017089264369
20
30.656341428751951
30
0
10
17.544335564186223
20
30.502501076499126
30
0
10
17.552065108249579
20
30.443977206669672
30
0
0
SPLINE
5
276
100
AcDbEntity
8
0
100
AcDbSpline
70
1064
71
3
72
9
73
5
74
0
42
0.000000001
43
0.0000000001
44
0.0000000001
40
0
40
0
40
0
40
0
40
0.016770596240916785
40
0.032939758385834239
40
0.032939758385834239
40
0.032939758385834239
40
0.032939758385834239
10
17.552065108249579
20
30.443977206669672
30
0
10
17.569344110172892
20
30.389614071030717
30
0
10
17.603282447267535
20
30.282837393128563
30
0
10
17.686833563582006
20
30.208332619785914
30
0
10
17.727846358249579
20
30.171760409794672
30
0
0
SPLINE
5
277
100
AcDbEntity
8
0
100
AcDbSpline
70
1064
71
3
72
9
73
5
74
0
42
0.000000001
43
0.0000000001
44
0.0000000001
40
0
40
0
40
0
40
0
40
0.016746143866878446
40
0.035101826558531835
40
0.035101826558531835
40
0.035101826558531835
40
0.035101826558531835
10
17.727846358249579
20
30.171760409794672
30
0
10
17.776639727494373
20
30.142937863277734
30
0
10
17.878916191739073
20
30.082522520088567
30
0
10
17.99774096201428
20
30.076193217862134
30
0
10
18.059877608249579
20
30.072883456669672
30
0
0
SPLINE
5
278
100
AcDbEntity
8
0
100
AcDbSpline
70
1064
71
3
72
9
73
5
74
0
42
0.000000001
43
0.0000000001
44
0.0000000001
40
0
40
0
40
0
40
0
40
0.019331699446341413
40
0.038818672612705357
40
0.038818672612705357
40
0.038818672612705357
40
0.038818672612705357
10
18.059877608249579
20
30.072883456669672
30
0
10
18.124892930362538
20
30.077172196473967
30
0
10
18.255445782734256
20
30.085784123575685
30
0
10
18.372307019069826
20
30.144650763525611
30
0
10
18.430971358249579
20
30.174201816044672
30
0
0
SPLINE
5
279
100
AcDbEntity
8
0
100
AcDbSpline
70
1064
71
3
72
9
73
5
74
0
42
0.000000001
43
0.0000000001
44
0.0000000001
40
0
40
0
40
0
40
0
40
0.019031056321697933
40
0.037440644625498912
40
0.037440644625498912
40
0.037440644625498912
40
0.037440644625498912
10
18.430971358249579
20
30.174201816044672
30
0
10
18.484321371799094
20
30.210528853605592
30
0
10
18.589279229329879
20
30.281996652377472
30
0
10
18.647637760309642
20
30.394676145351905
30
0
10
18.676332686374579
20
30.450080722294672
30
0
0
SPLINE
5
280
100
AcDbEntity
8
0
100
AcDbSpline
70
1064
71
3
72
9
73
5
74
0
42
0.000000001
43
0.0000000001
44
0.0000000001
40
0
40
0
40
0
40
0
40
0.022064230089190718
40
0.051385921899643514
40
0.051385921899643514
40
0.051385921899643514
40
0.051385921899643514
10
18.676332686374579
20
30.450080722294672
30
0
10
18.697234049832126
20
30.520939442992479
30
0
10
18.745911743360704
20
30.685964040405015
30
0
10
18.747466818244977
20
30.858322063494867
30
0
10
18.748354170749579
20
30.956672519169672
30
0
0
LINE
5
281
100
AcDbEntity
8
0
100
AcDbLine
10
18.748354170749579
20
30.956672519169665
30
0
11
18.748354170749579
21
32.345832675419672
31
0
0
LINE
5
282
100
AcDbEntity
8
0
100
AcDbLine
10
18.748354170749579
20
32.345832675419672
30
0
11
19.187807295749579
21
32.345832675419672
31
0
0
LINE
5
283
100
AcDbEntity
8
0
100
AcDbLine
10
19.187807295749579
20
32.345832675419672
30
0
11
19.187807295749579
21
29.753059237919672
31
0
0
LINE
5
284
100
AcDbEntity
8
0
100
AcDbLine
10
19.187807295749579
20
29.753059237919672
30
0
11
18.794740889499579
21
29.753059237919672
31
0
0
LINE
5
285
100
AcDbEntity
8
0
100
AcDbLine
10
20.835756514499579
20
30.146125644169672
30
0
11
20.899233076999579
21
29.757942050419672
31
0
0
SPLINE
5
286
100
AcDbEntity
8
0
100
AcDbSpline
70
1064
71
3
72
9
73
5
74
0
42
0.000000001
43
0.0000000001
44
0.0000000001
40
0
40
0
40
0
40
0
40
0.017820593350483065
40
0.033476081184351622
40
0.033476081184351622
40
0.033476081184351622
40
0.033476081184351622
10
20.899233076999579
20
29.757942050419672
30
0
10
20.840823661614216
20
29.746563379386878
30
0
10
20.731101258273608
20
29.725188484187129
30
0
10
20.619427424585052
20
29.720889855358323
30
0
10
20.567201826999579
20
29.718879550419672
30
0
0
SPLINE
5
287
100
AcDbEntity
8
0
100
AcDbSpline
70
1064
71
3
72
9
73
5
74
0
42
0.000000001
43
0.0000000001
44
0.0000000001
40
0
40
0
40
0
40
0
40
0.021324341965972913
40
0.03817811483638453
40
0.03817811483638453
40
0.03817811483638453
40
0.03817811483638453
10
20.567201826999579
20
29.718879550419672
30
0
10
20.495319597865873
20
29.720262121098834
30
0
10
20.366624981969117
20
29.722737411649081
30
0
10
20.248329676270053
20
29.772566177818042
30
0
10
20.196108076999579
20
29.794563144169672
30
0
0
SPLINE
5
288
100
AcDbEntity
8
0
100
AcDbSpline
70
1064
71
3
72
9
73
5
74
0
42
0.000000001
43
0.0000000001
44
0.0000000001
40
0
40
0
40
0
40
0
40
0.014242034176803147
40
0.027573186801426373
40
0.027573186801426373
40
0.027573186801426373
40
0.027573186801426373
10
20.196108076999579
20
29.794563144169672
30
0
10
20.155741250387855
20
29.821053926043312
30
0
10
20.077589348986109
20
29.872341211837593
30
0
10
20.032406377112075
20
29.954038531267912
30
0
10
20.010561201999579
20
29.993537753544672
30
0
0
SPLINE
5
289
100
AcDbEntity
8
0
100
AcDbSpline
70
1064
71
3
72
9
73
5
74
0
42
0.000000001
43
0.0000000001
44
0.0000000001
40
0
40
0
40
0
40
0
40
0.019553958089760459
40
0.05232683908936011
40
0.05232683908936011
40
0.05232683908936011
40
0.05232683908936011
10
20.010561201999579
20
29.993537753544672
30
0
10
19.995123548470033
20
30.057068486885008
30
0
10
19.953812034532579
20
30.227078182388524
30
0
10
19.955680207194412
20
30.402480291143632
30
0
10
19.956850264499579
20
30.512336581669672
30
0
0
LINE
5
290
100
AcDbEntity
8
0
100
AcDbLine
10
19.956850264499579
20
30.512336581669665
30
0
11
19.956850264499579
21
32.004035800419672
31
0
0
LINE
5
291
100
AcDbEntity
8
0
100
AcDbLine
10
19.956850264499579
20
32.004035800419672
30
0
11
19.634584639499579
21
32.004035800419672
31
0
0
LINE
5
292
100
AcDbEntity
8
0
100
AcDbLine
10
19.634584639499579
20
32.004035800419672
30
0
11
19.634584639499579
21
32.345832675419672
31
0
0
LINE
5
293
100
AcDbEntity
8
0
100
AcDbLine
10
19.634584639499579
20
32.345832675419672
30
0
11
19.956850264499579
21
32.345832675419672
31
0
0
LINE
5
294
100
AcDbEntity
8
0
100
AcDbLine
10
19.956850264499579
20
32.345832675419672
30
0
11
19.956850264499579
21
32.987922519169672
31
0
0
LINE
5
295
100
AcDbEntity
8
0
100
AcDbLine
10
19.956850264499579
20
32.987922519169672
30
0
11
20.393861983249579
21
33.251594394169672
31
0
0
LINE
5
296
100
AcDbEntity
8
0
100
AcDbLine
10
20.393861983249579
20
33.251594394169672
30
0
11
20.393861983249579
21
32.345832675419672
31
0
0
LINE
5
297
100
AcDbEntity
8
0
100
AcDbLine
10
20.393861983249579
20
32.345832675419672
30
0
11
20.835756514499579
21
32.345832675419672
31
0
0
LINE
5
298
100
AcDbEntity
8
0
100
AcDbLine
10
20.835756514499579
20
32.345832675419672
30
0
11
20.835756514499579
21
32.004035800419672
31
0
0
LINE
5
299
100
AcDbEntity
8
0
100
AcDbLine
10
20.835756514499579
20
32.004035800419672
30
0
11
20.393861983249579
21
32.004035800419672
31
0
0
LINE
5
300
100
AcDbEntity
8
0
100
AcDbLine
10
20.393861983249579
20
32.004035800419672
30
0
11
20.393861983249579
21
30.487922519169672
31
0
0
SPLINE
5
301
100
AcDbEntity
8
0
100
AcDbSpline
70
1064
71
3
72
9
73
5
74
0
42
0.000000001
43
0.0000000001
44
0.0000000001
40
0
40
0
40
0
40
0
40
0.015452776907846849
40
0.024352458270579639
40
0.024352458270579639
40
0.024352458270579639
40
0.024352458270579639
10
20.393861983249579
20
30.487922519169672
30
0
10
20.393213728762312
20
30.436145837420497
30
0
10
20.392192126596957
20
30.354549533454858
30
0
10
20.410400892633124
20
30.275215989848668
30
0
10
20.417055342624579
20
30.246223300419672
30
0
0
SPLINE
5
302
100
AcDbEntity
8
0
100
AcDbSpline
70
1064
71
3
72
9
73
5
74
0
42
0.000000001
43
0.0000000001
44
0.0000000001
40
0
40
0
40
0
40
0
40
0.0057063791057776377
40
0.011559711052195356
40
0.011559711052195356
40
0.011559711052195356
40
0.011559711052195356
10
20.417055342624579
20
30.246223300419672
30
0
10
20.426115976719394
20
30.229169916893074
30
0
10
20.444470577797283
20
30.194623984634546
30
0
10
20.476513700769054
20
30.17215260513758
30
0
10
20.492738936374579
20
30.160774081669672
30
0
0
SPLINE
5
303
100
AcDbEntity
8
0
100
AcDbSpline
70
1064
71
3
72
9
73
5
74
0
42
0.000000001
43
0.0000000001
44
0.0000000001
40
0
40
0
40
0
40
0
40
0.0068078827784957699
40
0.01548072935495607
40
0.01548072935495607
40
0.01548072935495607
40
0.01548072935495607
10
20.492738936374579
20
30.160774081669672
30
0
10
20.513705490233143
20
30.151551340805117
30
0
10
20.561382213871187
20
30.130579364659162
30
0
10
20.61361998979422
20
30.129590049441347
30
0
10
20.642885420749579
20
30.129035800419672
30
0
0
SPLINE
5
304
100
AcDbEntity
8
0
100
AcDbSpline
70
1064
71
3
72
9
73
5
74
0
42
0.000000001
43
0.0000000001
44
0.0000000001
40
0
40
0
40
0
40
0
40
0.0084946379017123083
40
0.019373630170398549
40
0.019373630170398549
40
0.019373630170398549
40
0.019373630170398549
10
20.642885420749579
20
30.129035800419672
30
0
10
20.671200421311777
20
30.130040802325535
30
0
10
20.735778141458759
20
30.132332899466114
30
0
10
20.799803798349533
20
30.141165705133108
30
0
10
20.835756514499579
20
30.146125644169672
30
0
0
LINE
5
305
100
AcDbEntity
8
0
100
AcDbLine
10
-44.16725060621323
20
37.26474678388135
30
0
11
-44.16725060621323
21
36.76474678388135
31
0
0
LINE
5
306
100
AcDbEntity
8
0
100
AcDbLine
10
-44.16725060621323
20
37.26474678388135
30
0
11
-43.66725060621323
21
37.26474678388135
31
0
0
ENDSEC
0
SECTION
2
OBJECTS
0
DICTIONARY
5
C
100
AcDbDictionary
3
ACAD_GROUP
350
D
3
ACAD_MLINESTYLE
350
17
0
DICTIONARY
5
D
100
AcDbDictionary
0
DICTIONARY
5
1A
330
C
100
AcDbDictionary
0
DICTIONARY
5
17
100
AcDbDictionary
0
ENDSEC
0
EOF
