<?xml version="1.0" encoding="utf-8"?>
<svg width="220px" height="24px" viewBox="0 0 220 24" version="1.1" xmlns:xlink="http://www.w3.org/1999/xlink" xmlns="http://www.w3.org/2000/svg">
  <desc>Created with Lunacy</desc>
  <defs>
    <path d="M0 0L13.6699 0L13.6699 15.5858L0 15.5858L0 0Z" transform="translate(0 0.04276923)" id="path_1" />
    <path d="M0 21.4324L114.439 21.4324L114.439 0L0 0L0 21.4324Z" transform="translate(0.09778075 0.5676)" id="path_2" />
    <clipPath id="mask_1">
      <use xlink:href="#path_1" />
    </clipPath>
    <clipPath id="mask_2">
      <use xlink:href="#path_2" />
    </clipPath>
  </defs>
  <g id="Group-40">
    <g id="Group-20" transform="translate(0 1.777344)">
      <path d="M10.2162 7.12492C10.9511 7.64431 11.3917 8.53477 11.3917 9.49969L11.3917 12.6911C11.3917 14.3243 10.0687 15.5858 8.52577 15.5858L1.24983 15.5858C0.9555 15.5858 0.588047 15.4375 0.367453 15.2148C0.147469 14.992 0 14.6954 0 14.3243L0 1.336C0 0.593231 0.588047 0 1.32295 0L7.49653 0C9.1132 0 10.363 1.26154 10.363 2.82031L10.363 6.30831C10.363 6.60554 10.2893 6.90215 10.2162 7.12492ZM2.8665 6.38277C2.71964 6.38277 2.57278 6.23385 2.57278 6.08554L2.57278 2.89415C2.57278 2.74585 2.71964 2.59754 2.8665 2.59754L7.42341 2.59754C7.57026 2.59754 7.71712 2.67138 7.71712 2.82031L7.71712 6.08554C7.71712 6.23385 7.64339 6.30831 7.49653 6.38277L2.8665 6.38277ZM2.8665 12.9138C2.71964 12.9138 2.57278 12.7655 2.57278 12.6172L2.57278 9.42585C2.57278 9.27692 2.71964 9.12862 2.8665 9.12862L8.52577 9.12862C8.67262 9.12862 8.81948 9.27692 8.81948 9.42585L8.81948 12.6172C8.81948 12.7655 8.67262 12.9138 8.52577 12.9138L2.8665 12.9138Z" transform="translate(62.83765 0.04283077)" id="Fill-1" fill="#FFFFFF" fill-rule="evenodd" stroke="none" />
      <g id="Group-5">
        <path d="M0 0L13.6699 0L13.6699 15.5858L0 15.5858L0 0Z" transform="translate(0 0.04276923)" id="Clip-4" fill="none" stroke="none" />
        <g clip-path="url(#mask_1)">
          <path d="M5.43867 14.2498C5.43867 14.992 6.02672 15.5858 6.76163 15.5858C7.49653 15.5858 8.08458 14.992 8.08458 14.2498L8.08458 2.89415C8.08458 2.74585 8.23144 2.59754 8.3783 2.59754L10.7305 2.59754C10.8773 2.59754 11.0242 2.74585 11.0242 2.89415L11.0242 14.2498C11.0242 14.992 11.6123 15.5858 12.3472 15.5858C13.0821 15.5858 13.6701 14.992 13.6701 14.2498L13.6701 2.89415C13.6701 1.336 12.4209 0 10.8036 0L2.8665 0C1.32295 0 0 1.26154 0 2.89415L0 14.2498C0 14.992 0.588047 15.5858 1.32295 15.5858C2.05786 15.5858 2.64591 14.992 2.64591 14.2498L2.64591 2.89415C2.64591 2.74585 2.79277 2.59754 2.93963 2.59754L5.29181 2.59754C5.43867 2.59754 5.58553 2.74585 5.58553 2.89415L5.43867 14.2498Z" transform="translate(-0.0001828125 0.04276923)" id="Fill-3" fill="#FFFFFF" stroke="none" />
        </g>
      </g>
      <path d="M5.73239 6.90215C6.4673 6.90215 7.05534 6.30831 7.05534 5.56615C7.05534 4.824 6.4673 4.23015 5.73239 4.23015L1.32295 4.23015C0.588047 4.23015 0 4.824 0 5.56615L0 10.0935C0 10.8357 0.588047 11.4295 1.32295 11.4295L8.59889 11.4295C10.1418 11.4295 11.4648 10.168 11.4648 8.53477L11.4648 2.89415C11.4648 1.336 10.2156 0 8.59889 0L1.32295 0C0.588047 0 0 0.593846 0 1.336C0 2.07815 0.588047 2.67138 1.32295 2.67138L8.59889 2.67138C8.74575 2.67138 8.89261 2.82031 8.89261 2.96862L8.89261 8.60923C8.89261 8.75754 8.74575 8.90585 8.59889 8.90585L2.86589 8.90585C2.71903 8.90585 2.57217 8.75754 2.57217 8.60923L2.57217 7.19877C2.57217 7.05046 2.71903 6.90215 2.86589 6.90215L5.73239 6.90215Z" transform="translate(15.06668 4.199016)" id="Fill-6" fill="#FFFFFF" stroke="none" />
      <path d="M8.89322 2.82031C8.89322 2.672 8.74636 2.52369 8.5995 2.52369L2.8665 2.52369C2.71964 2.52369 2.57217 2.672 2.57217 2.82031L2.57217 8.46092C2.57217 8.60923 2.71964 8.75754 2.8665 8.75754L10.1424 8.75754C10.8773 8.75754 11.4654 9.35139 11.4654 10.0935C11.4654 10.8357 10.8773 11.4295 10.1424 11.4295L2.8665 11.4295C1.32295 11.4295 0 10.168 0 8.53539L0 2.89477C0 1.336 1.24983 0 2.8665 0L8.5995 0C10.1424 0 11.4654 1.336 11.4654 2.89477L11.4654 5.78892C11.4654 6.53108 10.8773 7.12492 10.1424 7.12492L5.73239 7.12492C4.99748 7.12492 4.41005 6.53108 4.41005 5.78892C4.41005 5.04677 4.99748 4.45292 5.73239 4.45292L8.52576 4.45292C8.67262 4.45292 8.81948 4.30462 8.81948 4.15631L8.89322 2.82031Z" transform="translate(41.00972 4.273046)" id="Fill-8" fill="#FFFFFF" stroke="none" />
      <path d="M8.74575 8.38646C10.2893 8.38646 11.6122 9.648 11.6122 11.2812L11.6122 14.2498C11.6122 14.992 11.0242 15.5858 10.2893 15.5858C9.55439 15.5858 8.96634 14.992 8.96634 14.2498L8.96634 11.2812C8.96634 11.1323 8.81948 10.984 8.67202 10.984L2.93962 10.984C2.79277 10.984 2.64591 11.1323 2.64591 11.2812L2.64591 14.2498C2.64591 14.992 2.05786 15.5858 1.32295 15.5858C0.588047 15.5858 0 14.992 0 14.2498L0 1.33538C0 0.593231 0.588047 0 1.32295 0C2.05786 0 2.64591 0.593231 2.64591 1.33538L2.64591 8.16369C2.64591 8.312 2.79277 8.46092 2.93962 8.46092L5.36494 8.46092C5.5118 8.46092 5.65927 8.312 5.65927 8.16369L5.65927 5.41785C5.65927 4.67569 6.2467 4.08185 6.98161 4.08185C7.71712 4.08185 8.30456 4.67569 8.30456 5.41785L8.30456 8.16369C8.30456 8.312 8.45203 8.46092 8.59889 8.46092L8.74575 8.38646Z" transform="translate(27.92802 0.04283077)" id="Fill-10" fill="#FFFFFF" stroke="none" />
      <path d="M7.27594 1.336C7.27594 2.07815 6.68789 2.672 5.95298 2.672L2.93962 2.672C2.79277 2.672 2.64591 2.82031 2.64591 2.96862L2.64591 10.168C2.64591 10.9102 2.05786 11.504 1.32295 11.504C0.588047 11.504 0 10.9102 0 10.168L0 2.89477C0 1.336 1.24922 0 2.8665 0L5.87925 0C6.76162 0.0744615 7.27594 0.668308 7.27594 1.336" transform="translate(53.94511 4.124554)" id="Fill-12" fill="#FFFFFF" stroke="none" />
      <path d="M2.86589 0L8.59889 0C10.2156 0 11.4654 1.26215 11.4654 2.89477L11.4654 8.53539C11.4654 10.168 10.1424 11.4302 8.59889 11.4302L2.86589 11.4302C1.24922 11.4302 0 10.0942 0 8.53539L0 2.89477C0 1.26215 1.32295 0 2.86589 0ZM8.59889 8.832C8.74575 8.832 8.89261 8.68369 8.89261 8.53538L8.89261 2.89477C8.89261 2.74646 8.74575 2.59815 8.59889 2.59815L2.86589 2.59815C2.71903 2.59815 2.57217 2.74646 2.57217 2.89477L2.57217 8.53538C2.57217 8.68369 2.71903 8.832 2.86589 8.832L8.59889 8.832Z" transform="translate(75.77298 4.198646)" id="Fill-14" fill="#FFFFFF" fill-rule="evenodd" stroke="none" />
      <path d="M4.55691 2.22646C5.29181 2.22646 5.87986 2.82031 5.87986 3.56246C5.87986 4.30462 5.29181 4.89846 4.55691 4.89846L2.8665 4.89846C2.71964 4.89846 2.57278 5.04677 2.57278 5.19508L2.57278 10.8357C2.57278 10.984 2.71964 11.1329 2.8665 11.1329L2.94023 11.1329L3.01336 11.1329L5.87986 11.1329C6.61477 11.1329 7.20281 11.7268 7.20281 12.4689C7.20281 13.2111 6.61477 13.8043 5.87986 13.8043L3.01336 13.8043L2.94023 13.8043L2.8665 13.8043C1.32295 13.8043 0 12.5428 0 10.9102L0 1.336C0 0.593846 0.588047 0 1.32295 0C2.05786 0 2.64591 0.593846 2.64591 1.336L2.64591 1.92985C2.64591 2.07815 2.79277 2.22646 2.94023 2.22646L4.55691 2.22646Z" transform="translate(88.78124 1.972369)" id="Fill-16" fill="#FFFFFF" stroke="none" />
      <path d="M4.12973 15.4468L4.12973 3.53108L0 3.53108L0 0L11.9742 0L11.9742 3.53108L7.86581 3.53108L7.86581 15.4468L4.12973 15.4468Z" transform="translate(104.9098 0.2124308)" id="Fill-18" fill="#FEFEFE" stroke="none" />
    </g>
    <g id="Group-28" transform="translate(105 0.7773438)">
      <path d="M3.50658 0L3.50658 4.80103C4.36631 3.71926 5.60179 3.40371 6.88032 3.40371C10.2762 3.44834 11.2245 6.01794 11.1808 9.06086L11.1808 15.7778L7.67425 15.7778L7.67425 9.08349C7.67425 5.61251 3.68307 6.35611 3.68307 9.15074L3.68307 15.7778L0 15.7778L0 0L3.50658 0Z" transform="translate(12.7789 1.47444)" id="Fill-21" fill="#FEFEFE" stroke="none" />
      <path d="M0 21.4324L114.439 21.4324L114.439 0L0 0L0 21.4324Z" transform="translate(0.09778075 0.5676)" id="Clip-24" fill="none" stroke="none" />
      <g clip-path="url(#mask_2)">
        <path d="M0 2.079C0 4.73849 4.16767 4.73849 4.16767 2.079C4.16767 -0.693 0 -0.693 0 2.079ZM3.85896 16.6845L0.330856 16.6845L0.330856 4.49083L3.85896 4.49083L3.85896 16.6845Z" transform="translate(24.88674 0.5672857)" id="Fill-23" fill="#FEFEFE" fill-rule="evenodd" stroke="none" />
        <path d="M3.50658 0.1804L3.50658 1.39731C4.34479 0.315543 5.60118 0 6.88032 0C10.2762 0.0452571 11.203 2.61486 11.1808 5.65777L11.1808 12.3741L7.65211 12.3741L7.65211 5.67977C7.65211 2.20943 3.68308 2.95303 3.68308 5.74766L3.68308 12.3741L0 12.3741L0 0.1804L3.50658 0.1804Z" transform="translate(30.09089 4.877589)" id="Fill-25" fill="#FEFEFE" stroke="none" />
        <path d="M5.7334 0.000141803C1.94086 -0.0231153 0 2.8174 0 6.33363C0 9.69209 1.91872 12.2837 5.75553 12.2837C6.94612 12.2837 8.07091 11.9461 8.8427 11.0215C8.8427 14.6283 4.34417 14.0871 3.99179 12.5093L0.352995 12.5093C0.705374 18.4374 12.3929 19.2709 12.305 10.9536L12.305 0.134656L8.8427 0.134656L8.8427 1.3522C8.04877 0.315685 6.88032 0.000141803 5.7334 0.000141803ZM6.15281 8.92523C4.82939 8.92523 3.50658 8.09174 3.48444 6.37826C3.4623 4.91368 4.34417 3.3806 6.15281 3.3806C7.62997 3.3806 8.8427 4.71066 8.8427 6.33363C8.8427 8.02386 7.49775 8.90323 6.15281 8.92523Z" transform="translate(41.97832 4.923081)" id="Fill-26" fill="#FEFEFE" fill-rule="evenodd" stroke="none" />
        <path d="M0 2.079C0 4.73849 4.16767 4.73849 4.16767 2.079C4.16767 -0.693 0 -0.693 0 2.079ZM3.85896 16.6845L0.330856 16.6845L0.330856 4.49083L3.85896 4.49083L3.85896 16.6845Z" transform="translate(55.03642 0.5672857)" id="Fill-27" fill="#FEFEFE" fill-rule="evenodd" stroke="none" />
      </g>
    </g>
    <g id="Group-39" transform="translate(165 4.777344)">
      <path d="M6.74911 3.84057L8.239 0L11.8109 0L11.8109 0.555286L7.31867 12.0541L4.49228 12.0541L0 0.555286L0 0L3.59333 0L5.06183 3.84057L5.91617 6.90362L6.74911 3.84057Z" transform="translate(0.01546111 0.6477714)" id="Fill-29" fill="#FEFEFE" stroke="none" />
      <path d="M3.61533 7.53629L12.1177 7.53629C12.2057 7.09181 12.2491 6.64857 12.2491 6.16014C12.2491 -2.05338 0 -2.05338 0 6.16014C0 13.5739 9.88228 14.3068 11.8989 8.40171L8.15161 8.40171C6.96789 9.71162 4.33889 9.44543 3.61533 7.53629ZM6.06956 3.05252C7.18728 3.05252 8.15161 3.60719 8.48039 4.80567L3.74672 4.80567C4.0975 3.62948 5.03983 3.05252 6.06956 3.05252Z" transform="translate(11.28007 0.4595191)" id="Fill-31" fill="#FEFEFE" fill-rule="evenodd" stroke="none" />
      <path d="M3.43994 12.2567L0 12.2567L0 0.24776L3.11117 0.24776L3.24317 1.04695C4.33889 -0.0190495 5.65339 -0.196097 7.16528 0.180903L7.12189 3.46619C5.65339 2.97776 3.43994 3.46619 3.43994 5.59757L3.43994 12.2567Z" transform="translate(24.40735 0.4005066)" id="Fill-33" fill="#FEFEFE" stroke="none" />
      <path d="M4.97444 0C7.49467 0 9.66411 1.30929 9.68611 4.10676L6.42095 4.10676C6.39894 3.17386 5.50061 3.10762 4.79906 3.10762C4.29489 3.10762 3.59394 3.28529 3.59394 3.9291C3.59394 4.55062 4.51428 4.57291 4.99645 4.59457C7.45067 4.66143 9.92689 5.72681 9.92689 8.56824C9.92689 11.5873 7.53867 12.6081 4.95244 12.6081C2.14744 12.6081 0.044 11.3211 0 8.25748L3.41856 8.25748C3.44056 9.05667 4.2515 9.38971 5.01844 9.38971C5.91678 9.412 6.50833 9.07895 6.50833 8.65676C6.50833 7.79133 5.21583 7.90214 4.66767 7.85757C2.45483 7.65824 0.175389 6.79281 0.175389 4.15071C0.175389 1.24305 2.36683 0 4.97444 0" transform="translate(31.90202 0.3596667)" id="Fill-35" fill="#FEFEFE" stroke="none" />
      <path d="M3.61533 7.53629L12.1177 7.53629C12.2057 7.09181 12.2491 6.64857 12.2491 6.16014C12.2491 -2.05338 0 -2.05338 0 6.16014C0 13.5739 9.88289 14.3068 11.8989 8.40171L8.15161 8.40171C6.9685 9.71162 4.33889 9.44543 3.61533 7.53629ZM6.06956 3.05252C7.18728 3.05252 8.15161 3.60719 8.48039 4.80567L3.74733 4.80567C4.0975 3.62948 5.03983 3.05252 6.06956 3.05252Z" transform="translate(42.29029 0.4595191)" id="Fill-37" fill="#FEFEFE" fill-rule="evenodd" stroke="none" />
    </g>
  </g>
</svg>