<?xml version="1.0" encoding="UTF-8"?>
<svg width="22px" height="22px" viewBox="0 0 22 22" version="1.1" xmlns="http://www.w3.org/2000/svg" xmlns:xlink="http://www.w3.org/1999/xlink">
    <!-- Generator: Sketch 58 (84663) - https://sketch.com -->
    <title>Group 3</title>
    <desc>Created with Sketch.</desc>
    <defs>
        <polygon id="path-1" points="0 0 22 0 22 22 0 22"></polygon>
    </defs>
    <g id="Page-1" stroke="none" stroke-width="1" fill="none" fill-rule="evenodd">
        <g id="thing-page-with-overlay" transform="translate(-1158.000000, -290.000000)">
            <g id="Group-3" transform="translate(1158.000000, 290.000000)">
                <mask id="mask-2" fill="white">
                    <use xlink:href="#path-1"></use>
                </mask>
                <g id="Clip-2"></g>
                <path d="M20.8551482,20.9952719 L18.8389099,20.4677474 L20.4681115,18.8389058 L20.9949677,20.8551165 C21.0196219,20.9493414 21.0135427,21.0003377 21.0179332,21.0094563 C21.0000336,21.0135089 20.9497121,21.019588 20.8551482,20.9952719 L20.8551482,20.9952719 Z M18.5008438,11.317798 L20.1783405,17.7325228 L17.7325118,20.1783181 L11.3180371,18.5005066 L18.5008438,11.317798 Z M21.9504012,20.6055387 L19.2384425,10.2350557 C19.2364161,10.2276258 19.2320257,10.2215468 19.2299993,10.2137791 C19.2212184,10.1864235 19.2104111,10.1604188 19.1975774,10.1347518 C19.191836,10.1242823 19.1867701,10.1134752 19.1803532,10.1030057 C19.1621159,10.0732861 19.1411767,10.0449173 19.1168603,10.019588 C19.1144962,10.0168862 19.1128076,10.0138467 19.1101057,10.0114826 L19.109768,10.0111449 L9.24303408,0.144883485 C9.05019119,-0.0482944951 8.73779246,-0.0482944951 8.54494957,0.144883485 C8.35210668,0.337723742 8.35210668,0.650118203 8.54494957,0.842620736 L18.0624724,10.3600135 L10.3599018,18.0621412 L0.842716681,8.54542384 C0.649873789,8.35224586 0.33747506,8.35224586 0.144632169,8.54542384 C-0.0482107228,8.7382641 -0.0482107228,9.05065856 0.144632169,9.24349882 L10.0110284,19.1094225 C10.0113661,19.1097602 10.0117038,19.1097602 10.0117038,19.1100979 C10.052569,19.1506248 10.102215,19.1810199 10.1552384,19.205336 C10.1690852,19.2117528 10.1822566,19.2171564 10.196779,19.2225599 C10.2099504,19.2272881 10.2217709,19.2343803 10.23528,19.2380952 L20.6055669,21.9503546 C20.7328905,21.9837893 20.8568368,22 20.9750417,22 C21.2665013,22 21.5248635,21.9020601 21.7133159,21.7132725 C21.9784327,21.4481594 22.0652289,21.0442418 21.9504012,20.6055387 L21.9504012,20.6055387 Z" id="Fill-1" fill="#737577" mask="url(#mask-2)"></path>
            </g>
        </g>
    </g>
</svg>