<?xml version="1.0" encoding="UTF-8"?>
<svg width="17px" height="11px" viewBox="0 0 17 11" version="1.1" xmlns="http://www.w3.org/2000/svg" xmlns:xlink="http://www.w3.org/1999/xlink">
    <!-- Generator: Sketch 58 (84663) - https://sketch.com -->
    <title>Fill 1</title>
    <desc>Created with Sketch.</desc>
    <g id="Page-1" stroke="none" stroke-width="1" fill="none" fill-rule="evenodd">
        <g id="thing-page-with-overlay" transform="translate(-1161.000000, -336.000000)" stroke="#666666">
            <path d="M1169.5,338 C1167.29115,338 1165.5,339.56682 1165.5,341.499565 C1165.5,343.432745 1167.29115,345 1169.5,345 C1171.70885,345 1173.5,343.432745 1173.5,341.499565 C1173.5,339.56682 1171.70885,338 1169.5,338 M1176.73664,340.888949 C1175.46512,339.658642 1172.38366,337 1169.5,337 C1166.61634,337 1163.53488,339.658642 1162.26336,340.888949 C1161.91221,341.228505 1161.91221,341.771309 1162.26336,342.111051 C1163.53488,343.341172 1166.61614,346 1169.5,346 C1172.38366,346 1175.46512,343.341172 1176.73664,342.111051 C1177.08779,341.771309 1177.08779,341.228505 1176.73664,340.888949" id="Fill-1"></path>
        </g>
    </g>
</svg>