<?xml version="1.0" encoding="UTF-8"?>
<svg width="20px" height="17px" viewBox="0 0 20 17" version="1.1" xmlns="http://www.w3.org/2000/svg" xmlns:xlink="http://www.w3.org/1999/xlink">
    <!-- Generator: Sketch 58 (84663) - https://sketch.com -->
    <title>Page 1 Copy 13</title>
    <desc>Created with Sketch.</desc>
    <g id="Page-1" stroke="none" stroke-width="1" fill="none" fill-rule="evenodd" stroke-linecap="round" stroke-linejoin="round">
        <g id="thing-page-with-overlay" transform="translate(-1158.000000, -213.000000)" stroke="#666666">
            <path d="M1175.5305,215.270477 L1175.5305,215.270477 C1174.6981,214.457034 1173.5694,214 1172.39221,214 L1172.32179,214 C1170.88419,214 1169.50637,214.557659 1168.48928,215.550929 C1168.2189,215.815152 1167.7811,215.815152 1167.51072,215.550929 C1166.49363,214.557659 1165.11515,214 1163.67821,214 L1163.60712,214 C1162.42993,214 1161.30124,214.457034 1160.4695,215.270477 L1160.46817,215.271126 C1159.52814,216.189738 1159,217.436195 1159,218.735236 L1159,218.736535 C1159,220.035576 1159.52814,221.281383 1160.4675,222.199996 L1167.02045,228.603666 C1167.56187,229.132111 1168.43813,229.132111 1168.97955,228.603666 L1175.53183,222.199996 C1176.47186,221.281383 1177,220.035576 1177,218.736535 C1177,217.436195 1176.47119,216.189738 1175.5305,215.270477 Z" id="Page-1-Copy-13"></path>
        </g>
    </g>
</svg>