<?xml version="1.0" encoding="UTF-8"?>
<svg width="12px" height="15px" viewBox="0 0 12 15" version="1.1" xmlns="http://www.w3.org/2000/svg" xmlns:xlink="http://www.w3.org/1999/xlink">
    <!-- Generator: Sketch 58 (84663) - https://sketch.com -->
    <title>Group 6</title>
    <desc>Created with Sketch.</desc>
    <defs>
        <polygon id="path-1" points="0 0 7.94285405 0 7.94285405 11.8281458 0 11.8281458"></polygon>
    </defs>
    <g id="Page-1" stroke="none" stroke-width="1" fill="none" fill-rule="evenodd">
        <g id="thing-page-with-overlay" transform="translate(-1163.000000, -374.000000)">
            <g id="Group-6" transform="translate(1163.000000, 374.000000)">
                <g id="Group-3">
                    <mask id="mask-2" fill="white">
                        <use xlink:href="#path-1"></use>
                    </mask>
                    <g id="Clip-2"></g>
                    <path d="M1.87582703,7.55553333 C1.87582703,5.80108889 2.96447568,4.22508889 4.58458378,3.63331111 C4.68123243,3.5982 4.78674595,3.61353333 4.86998919,3.67353333 C4.95258378,3.73375556 5.0020973,3.83153333 5.0020973,3.93597778 L5.0020973,4.85197778 L7.94285405,2.41464444 L5.02696216,-2.22222222e-05 L5.0020973,1.2582 C5.0020973,1.41108889 4.89744865,1.54286667 4.75171892,1.57331111 C1.99842162,2.14797778 -6.48648649e-05,4.66375556 -6.48648649e-05,7.55553333 C-6.48648649e-05,9.10842222 0.571178378,10.5890889 1.6088,11.7250889 C1.66652973,11.7888667 1.74523243,11.8244222 1.83128649,11.8257556 C1.94523243,11.8393111 1.99993514,11.7935333 2.06069189,11.7308667 L3.3208,10.7355333 C2.37377297,9.90086667 1.87582703,8.80953333 1.87582703,7.55553333" id="Fill-1" fill="#666666" mask="url(#mask-2)"></path>
                </g>
                <path d="M10.3799646,3.10194178 C10.3216007,3.03767549 10.2421124,3.00137067 10.1558731,3 C10.0842249,2.99911571 9.98600789,3.03271458 9.9243773,3.09652988 L8.68436096,4.15771292 C9.59575337,4.96882117 10.1110113,6.1050943 10.1110113,7.3331442 C10.1110113,9.11275673 9.01429155,10.7124236 7.38227848,11.3135953 C7.28602151,11.3485472 7.17887573,11.3332135 7.09546754,11.2727806 C7.01184157,11.2116713 6.96197087,11.1122276 6.96197087,11.0062446 L6.96197087,10.0765256 L4,12.5499886 L6.93670886,15 L6.96197087,13.7230175 C6.96197087,13.5678764 7.06737444,13.4341575 7.21415544,13.4032645 C9.98753233,12.8205835 12,10.2679715 12,7.3331442 C12,5.75715434 11.4248537,4.2544506 10.3799646,3.10194178" id="Fill-4" fill="#666666"></path>
            </g>
        </g>
    </g>
</svg>