<?xml version="1.0" encoding="UTF-8" standalone="no"?>
<svg
   xmlns:dc="http://purl.org/dc/elements/1.1/"
   xmlns:cc="http://creativecommons.org/ns#"
   xmlns:rdf="http://www.w3.org/1999/02/22-rdf-syntax-ns#"
   xmlns:svg="http://www.w3.org/2000/svg"
   xmlns="http://www.w3.org/2000/svg"
   xmlns:sodipodi="http://sodipodi.sourceforge.net/DTD/sodipodi-0.dtd"
   xmlns:inkscape="http://www.inkscape.org/namespaces/inkscape"
   width="159.74016"
   height="159.74014"
   version="1.1"
   id="svg861"
   sodipodi:docname="NEMA_MOUNT_ACRYLIC Ready to Laser.svg"
   inkscape:version="0.92.4 (5da689c313, 2019-01-14)">
  <metadata
     id="metadata865">
    <rdf:RDF>
      <cc:Work
         rdf:about="">
        <dc:format>image/svg+xml</dc:format>
        <dc:type
           rdf:resource="http://purl.org/dc/dcmitype/StillImage" />
        <dc:title></dc:title>
      </cc:Work>
    </rdf:RDF>
  </metadata>
  <sodipodi:namedview
     pagecolor="#ffffff"
     bordercolor="#666666"
     borderopacity="1"
     objecttolerance="10"
     gridtolerance="10"
     guidetolerance="10"
     inkscape:pageopacity="0"
     inkscape:pageshadow="2"
     inkscape:window-width="2560"
     inkscape:window-height="1057"
     id="namedview863"
     showgrid="false"
     fit-margin-top="0"
     fit-margin-left="0"
     fit-margin-right="0"
     fit-margin-bottom="0"
     inkscape:zoom="0.79107746"
     inkscape:cx="238.57839"
     inkscape:cy="59.216815"
     inkscape:window-x="-8"
     inkscape:window-y="-8"
     inkscape:window-maximized="1"
     inkscape:current-layer="g859" />
  <desc
     id="desc815">C:\Users\Office\Desktop\git\Mars-Rover\Ref Materials\Stepper Motor Stuff\NEMA_MOUNT_ACRYLIC.dxf - scale = 1.000000, origin = (0.000000, 0.000000), method = manual</desc>
  <defs
     id="defs829">
    <marker
       id="DistanceX"
       orient="auto"
       refX="0"
       refY="0"
       style="overflow:visible">
      <path
         d="M 3,-3 -3,3 M 0,-5 V 5"
         style="stroke:#000000;stroke-width:0.5"
         id="path817"
         inkscape:connector-curvature="0" />
    </marker>
    <pattern
       height="8"
       id="Hatch"
       patternUnits="userSpaceOnUse"
       width="8"
       x="0"
       y="0">
      <path
         d="M8 4 l-4,4"
         linecap="square"
         stroke="#000000"
         stroke-width="0.25"
         id="path820" />
      <path
         d="M6 2 l-4,4"
         linecap="square"
         stroke="#000000"
         stroke-width="0.25"
         id="path822" />
      <path
         d="M4 0 l-4,4"
         linecap="square"
         stroke="#000000"
         stroke-width="0.25"
         id="path824" />
    </pattern>
    <symbol
       id="*MODEL_SPACE" />
    <symbol
       id="*PAPER_SPACE" />
  </defs>
  <g
     inkscape:groupmode="layer"
     inkscape:label="0"
     id="g831"
     transform="translate(-158.27201,-626.10376)" />
  <g
     inkscape:groupmode="layer"
     inkscape:label="LAYER_1"
     id="g859"
     transform="translate(-158.27201,-626.10376)">
    <path
       d="m 158.77201,785.34391 c 0,0 158.74016,0 158.74016,0 0,0 0,0 0,-158.74015 0,0 0,0 0,0 -158.74016,0 -158.74016,0 -158.74016,0 0,0 0,158.74015 0,158.74015 z"
       style="fill:none;stroke:#ff0000;stroke-opacity:1"
       id="path839"
       inkscape:connector-curvature="0" />
    <path
       d="m 296.72476,769.77793 c 2.88341,0 5.22142,-2.33802 5.22142,-5.22142 0,0 0,-2.8834 -2.33801,-5.22142 -2.88341,0 -2.88341,0 -5.76681,0 -2.33801,2.33802 -2.33801,5.22142 -2.33801,5.22142 0,2.8834 2.33801,5.22142 5.22141,5.22142 z"
       style="fill:none;stroke:#ff0000;stroke-opacity:1"
       id="path841"
       inkscape:connector-curvature="0" />
    <path
       d="m 179.55941,769.77793 c 2.8834,0 5.22142,-2.33802 5.22142,-5.22142 0,0 0,-2.8834 -2.33802,-5.22142 -2.8834,0 -2.8834,0 -5.7668,0 -2.33802,2.33802 -2.33802,5.22142 -2.33802,5.22142 0,2.8834 2.33802,5.22142 5.22142,5.22142 z"
       style="fill:none;stroke:#ff0000;stroke-opacity:1"
       id="path843"
       inkscape:connector-curvature="0" />
    <path
       d="m 296.72476,652.61258 c 2.88341,0 5.22142,-2.33802 5.22142,-5.22142 0,0 0,-2.8834 -2.33801,-5.22142 -2.88341,0 -2.88341,0 -5.76681,0 -2.33801,2.33802 -2.33801,5.22142 -2.33801,5.22142 0,2.8834 2.33801,5.22142 5.22141,5.22142 z"
       style="fill:none;stroke:#ff0000;stroke-opacity:1"
       id="path845"
       inkscape:connector-curvature="0" />
    <path
       d="m 179.55941,652.61258 c 2.8834,0 5.22142,-2.33802 5.22142,-5.22142 0,0 0,-2.8834 -2.33802,-5.22142 -2.8834,0 -2.8834,0 -5.7668,0 -2.33802,2.33802 -2.33802,5.22142 -2.33802,5.22142 0,2.8834 2.33802,5.22142 5.22142,5.22142 z"
       style="fill:none;stroke:#ff0000;stroke-opacity:1"
       id="path847"
       inkscape:connector-curvature="0" />
    <path
       d="m 238.14209,748.49352 c 23.47918,0 42.51968,-19.0405 42.51968,-42.51968 0,0 0,-23.47919 -19.0405,-42.51969 -23.47918,0 -23.47918,0 -46.95836,0 -19.04051,19.0405 -19.04051,42.51969 -19.04051,42.51969 0,23.47918 19.04051,42.51968 42.51969,42.51968 z"
       style="fill:none;stroke:#ff0000;stroke-opacity:1"
       id="path849"
       inkscape:connector-curvature="0" />
  </g>
</svg>
